<svg width="585" height="357" xmlns="http://www.w3.org/2000/svg" xmlns:xlink="http://www.w3.org/1999/xlink" overflow="hidden"><defs><clipPath id="clip0"><rect x="0" y="0" width="585" height="357"/></clipPath><radialGradient cx="1" cy="1" r="1.4" gradientUnits="userSpaceOnUse" spreadMethod="pad" id="fill1" gradientTransform="matrix(19.2141 0 0 19.147 -2.22193e-07 337.816)"><stop offset="0" stop-color="#5EA0EF"/><stop offset="0.18" stop-color="#5EA0EF"/><stop offset="0.56" stop-color="#5C9FEE"/><stop offset="0.69" stop-color="#559CED"/><stop offset="0.78" stop-color="#4A97E9"/><stop offset="0.86" stop-color="#3990E4"/><stop offset="0.93" stop-color="#2387DE"/><stop offset="0.99" stop-color="#087BD6"/><stop offset="1" stop-color="#0078D4"/></radialGradient><radialGradient cx="0" cy="0" r="1.4" gradientUnits="userSpaceOnUse" spreadMethod="pad" id="fill2" gradientTransform="matrix(2.71252 0 0 2.71254 -3.00887e-08 354.251)"><stop offset="0" stop-color="#8C8E90"/><stop offset="0.19" stop-color="#8C8E90"/><stop offset="0.35" stop-color="#848688"/><stop offset="0.6" stop-color="#6E7071"/><stop offset="0.91" stop-color="#4A4B4C"/><stop offset="1" stop-color="#3E3F3F"/></radialGradient><radialGradient cx="0.5" cy="0.5" r="0.73" gradientUnits="userSpaceOnUse" spreadMethod="pad" id="fill3" gradientTransform="matrix(11.9727 0 0 14.7643 -0.0400446 342.199)"><stop offset="0" stop-color="#B77AF4"/><stop offset="0.21" stop-color="#B378F2"/><stop offset="0.43" stop-color="#A672ED"/><stop offset="0.65" stop-color="#9267E4"/><stop offset="0.88" stop-color="#7559D8"/><stop offset="1" stop-color="#624FD0"/></radialGradient><linearGradient x1="5.18774" y1="350.083" x2="10.0472" y2="353.793" gradientUnits="userSpaceOnUse" spreadMethod="pad" id="fill4"><stop offset="0" stop-color="#F2F2F2"/><stop offset="0.23" stop-color="#F1F1F2"/><stop offset="0.37" stop-color="#EDEDF1"/><stop offset="0.48" stop-color="#E7E5F0"/><stop offset="0.58" stop-color="#DEDBEE"/><stop offset="0.67" stop-color="#D3CEEB"/><stop offset="0.76" stop-color="#C4BEE8"/><stop offset="0.84" stop-color="#B4ABE5"/><stop offset="0.92" stop-color="#A095E1"/><stop offset="0.99" stop-color="#8B7DDC"/><stop offset="1" stop-color="#897BDC"/></linearGradient><radialGradient cx="1" cy="0" r="1.4" gradientUnits="userSpaceOnUse" spreadMethod="pad" id="fill5" gradientTransform="matrix(11.683 0 0 12.4517 -0.0637608 344.512)"><stop offset="0" stop-color="#5EA0EF"/><stop offset="0.28" stop-color="#5B9FEE"/><stop offset="0.47" stop-color="#529BEC"/><stop offset="0.64" stop-color="#4394E7"/><stop offset="0.79" stop-color="#2D8BE1"/><stop offset="0.93" stop-color="#117FD9"/><stop offset="1" stop-color="#0078D4"/></radialGradient><linearGradient x1="-2.16445e-06" y1="356.963" x2="-2.16445e-06" y2="345.431" gradientUnits="userSpaceOnUse" spreadMethod="pad" id="fill6"><stop offset="0" stop-color="#0078D4"/><stop offset="0.82" stop-color="#5EA0EF"/><stop offset="1" stop-color="#5EA0EF"/></linearGradient><linearGradient x1="-2.9147e-05" y1="356.963" x2="-2.9147e-05" y2="352.514" gradientUnits="userSpaceOnUse" spreadMethod="pad" id="fill7"><stop offset="0" stop-color="#CCCCCC"/><stop offset="0.15" stop-color="#CCCCCC"/><stop offset="1" stop-color="#707070"/></linearGradient><linearGradient x1="0" y1="351.527" x2="5.77209" y2="351.527" gradientUnits="userSpaceOnUse" spreadMethod="pad" id="fill8"><stop offset="0" stop-color="#B77AF4"/><stop offset="1" stop-color="#773ADC"/></linearGradient><linearGradient x1="0" y1="351.527" x2="5.764" y2="351.527" gradientUnits="userSpaceOnUse" spreadMethod="pad" id="fill9"><stop offset="0" stop-color="#B77AF4"/><stop offset="1" stop-color="#773ADC"/></linearGradient><linearGradient x1="0" y1="351.527" x2="5.77209" y2="351.527" gradientUnits="userSpaceOnUse" spreadMethod="pad" id="fill10"><stop offset="0" stop-color="#B77AF4"/><stop offset="1" stop-color="#773ADC"/></linearGradient><linearGradient x1="0" y1="351.515" x2="5.764" y2="351.515" gradientUnits="userSpaceOnUse" spreadMethod="pad" id="fill11"><stop offset="0" stop-color="#B77AF4"/><stop offset="1" stop-color="#773ADC"/></linearGradient><linearGradient x1="0" y1="351.527" x2="5.77209" y2="351.527" gradientUnits="userSpaceOnUse" spreadMethod="pad" id="fill12"><stop offset="0" stop-color="#B77AF4"/><stop offset="1" stop-color="#773ADC"/></linearGradient><linearGradient x1="0" y1="351.527" x2="5.77209" y2="351.527" gradientUnits="userSpaceOnUse" spreadMethod="pad" id="fill13"><stop offset="0" stop-color="#B77AF4"/><stop offset="1" stop-color="#773ADC"/></linearGradient><linearGradient x1="0" y1="351.527" x2="5.77209" y2="351.527" gradientUnits="userSpaceOnUse" spreadMethod="pad" id="fill14"><stop offset="0" stop-color="#B77AF4"/><stop offset="1" stop-color="#773ADC"/></linearGradient><linearGradient x1="-0.00121348" y1="356.964" x2="-0.00121348" y2="349.794" gradientUnits="userSpaceOnUse" spreadMethod="pad" id="fill15"><stop offset="0" stop-color="#0078D4"/><stop offset="0.82" stop-color="#5EA0EF"/><stop offset="1" stop-color="#5EA0EF"/></linearGradient><linearGradient x1="-2.31452e-08" y1="356.963" x2="-2.31452e-08" y2="354.233" gradientUnits="userSpaceOnUse" spreadMethod="pad" id="fill16"><stop offset="0" stop-color="#CCCCCC"/><stop offset="0.15" stop-color="#CCCCCC"/><stop offset="1" stop-color="#707070"/></linearGradient><linearGradient x1="-8.13726e-05" y1="356.991" x2="-8.13726e-05" y2="344.845" gradientUnits="userSpaceOnUse" spreadMethod="pad" id="fill17"><stop offset="0" stop-color="#5E9624"/><stop offset="0.18" stop-color="#629C25"/><stop offset="0.44" stop-color="#6DAE2A"/><stop offset="0.73" stop-color="#7FCB30"/><stop offset="0.82" stop-color="#86D633"/><stop offset="1" stop-color="#86D633"/></linearGradient><linearGradient x1="6.63103" y1="358.629" x2="-4.29248" y2="347.706" gradientUnits="userSpaceOnUse" spreadMethod="pad" id="fill18"><stop offset="0" stop-color="#0078D4"/><stop offset="1" stop-color="#289BF2"/></linearGradient><linearGradient x1="10.5256" y1="342.071" x2="19.5295" y2="352.428" gradientUnits="userSpaceOnUse" spreadMethod="pad" id="fill19"><stop offset="0" stop-color="#00CCF9"/><stop offset="1" stop-color="#0095E6"/></linearGradient><linearGradient x1="10.5702" y1="346.672" x2="16.4442" y2="354.641" gradientUnits="userSpaceOnUse" spreadMethod="pad" id="fill20"><stop offset="0" stop-color="#7CECFF"/><stop offset="1" stop-color="#50E6FF"/></linearGradient><linearGradient x1="21.3854" y1="341.839" x2="21.3854" y2="356.964" gradientUnits="userSpaceOnUse" spreadMethod="pad" id="fill21"><stop offset="0" stop-color="#6CC6B9"/><stop offset="0.46" stop-color="#6AC4B7"/><stop offset="0.64" stop-color="#62BDB0"/><stop offset="0.77" stop-color="#56B1A4"/><stop offset="1" stop-color="#258277"/></linearGradient><linearGradient x1="1.38871e-08" y1="356.963" x2="1.38871e-08" y2="353.879" gradientUnits="userSpaceOnUse" spreadMethod="pad" id="fill22"><stop offset="0" stop-color="#773ADC"/><stop offset="1" stop-color="#B77AF4"/></linearGradient><linearGradient x1="1.38871e-08" y1="356.963" x2="1.38871e-08" y2="353.879" gradientUnits="userSpaceOnUse" spreadMethod="pad" id="fill23"><stop offset="0" stop-color="#773ADC"/><stop offset="1" stop-color="#B77AF4"/></linearGradient><linearGradient x1="1.38871e-08" y1="356.963" x2="1.38871e-08" y2="353.879" gradientUnits="userSpaceOnUse" spreadMethod="pad" id="fill24"><stop offset="0" stop-color="#773ADC"/><stop offset="1" stop-color="#B77AF4"/></linearGradient><linearGradient x1="1.38871e-08" y1="356.963" x2="1.38871e-08" y2="353.879" gradientUnits="userSpaceOnUse" spreadMethod="pad" id="fill25"><stop offset="0" stop-color="#773ADC"/><stop offset="1" stop-color="#B77AF4"/></linearGradient><linearGradient x1="5.24625e-07" y1="356.971" x2="5.24625e-07" y2="336.855" gradientUnits="userSpaceOnUse" spreadMethod="pad" id="fill26"><stop offset="0" stop-color="#198AB3"/><stop offset="0.09" stop-color="#1F9DC4"/><stop offset="0.24" stop-color="#28B5D9"/><stop offset="0.4" stop-color="#2DC6E9"/><stop offset="0.57" stop-color="#31D1F2"/><stop offset="0.78" stop-color="#32D4F5"/><stop offset="1" stop-color="#32D4F5"/></linearGradient><linearGradient x1="4.0085" y1="352.955" x2="4.0085" y2="356.963" gradientUnits="userSpaceOnUse" spreadMethod="pad" id="fill27"><stop offset="0" stop-color="#C69AEB"/><stop offset="1" stop-color="#6F4BB2"/></linearGradient><linearGradient x1="18.3126" y1="337.062" x2="18.3126" y2="356.963" gradientUnits="userSpaceOnUse" spreadMethod="pad" id="fill28"><stop offset="0" stop-color="#F05A28"/><stop offset="1" stop-color="#FBCA0A"/></linearGradient><linearGradient x1="1.18141" y1="337.762" x2="9.67025" y2="340.681" gradientUnits="userSpaceOnUse" spreadMethod="pad" id="fill29"><stop offset="0" stop-color="#E6AD10"/><stop offset="1" stop-color="#C87E0E"/></linearGradient><linearGradient x1="1.72261" y1="342.304" x2="9.63754" y2="345.933" gradientUnits="userSpaceOnUse" spreadMethod="pad" id="fill30"><stop offset="0" stop-color="#F6D751"/><stop offset="1" stop-color="#E6AD10"/></linearGradient><linearGradient x1="3.14808" y1="347.345" x2="9.45685" y2="351.683" gradientUnits="userSpaceOnUse" spreadMethod="pad" id="fill31"><stop offset="0" stop-color="#F9E589"/><stop offset="1" stop-color="#F6D751"/></linearGradient><linearGradient x1="-1.05861" y1="355.887" x2="1.076" y2="353.753" gradientUnits="userSpaceOnUse" spreadMethod="pad" id="fill32"><stop offset="0" stop-color="#5E9624"/><stop offset="0.82" stop-color="#86D633"/><stop offset="1" stop-color="#86D633"/></linearGradient><linearGradient x1="-0.990071" y1="355.973" x2="0.990308" y2="353.993" gradientUnits="userSpaceOnUse" spreadMethod="pad" id="fill33"><stop offset="0" stop-color="#5E9624"/><stop offset="0.82" stop-color="#86D633"/><stop offset="1" stop-color="#86D633"/></linearGradient><linearGradient x1="-1.05634" y1="355.891" x2="1.07256" y2="353.762" gradientUnits="userSpaceOnUse" spreadMethod="pad" id="fill34"><stop offset="0" stop-color="#5E9624"/><stop offset="0.82" stop-color="#86D633"/><stop offset="1" stop-color="#86D633"/></linearGradient><linearGradient x1="-1.05634" y1="355.891" x2="1.07256" y2="353.762" gradientUnits="userSpaceOnUse" spreadMethod="pad" id="fill35"><stop offset="0" stop-color="#5E9624"/><stop offset="0.82" stop-color="#86D633"/><stop offset="1" stop-color="#86D633"/></linearGradient><linearGradient x1="2.81214" y1="338.744" x2="10.2456" y2="345.21" gradientUnits="userSpaceOnUse" spreadMethod="pad" id="fill36"><stop offset="0" stop-color="#005BA1"/><stop offset="0.07" stop-color="#0060A9"/><stop offset="0.355" stop-color="#0071C8"/><stop offset="0.515" stop-color="#0078D4"/><stop offset="0.64" stop-color="#0074CD"/><stop offset="0.82" stop-color="#006ABB"/><stop offset="1" stop-color="#005BA1"/></linearGradient><linearGradient x1="-1.46586e-08" y1="356.963" x2="-1.46586e-08" y2="355.183" gradientUnits="userSpaceOnUse" spreadMethod="pad" id="fill37"><stop offset="0" stop-color="#773ADC"/><stop offset="1" stop-color="#B77AF4"/></linearGradient><linearGradient x1="-1.46586e-08" y1="356.963" x2="-1.46586e-08" y2="355.183" gradientUnits="userSpaceOnUse" spreadMethod="pad" id="fill38"><stop offset="0" stop-color="#773ADC"/><stop offset="1" stop-color="#B77AF4"/></linearGradient><linearGradient x1="-1.46586e-08" y1="356.963" x2="-1.46586e-08" y2="355.183" gradientUnits="userSpaceOnUse" spreadMethod="pad" id="fill39"><stop offset="0" stop-color="#773ADC"/><stop offset="1" stop-color="#B77AF4"/></linearGradient><linearGradient x1="-1.46586e-08" y1="356.963" x2="-1.46586e-08" y2="355.183" gradientUnits="userSpaceOnUse" spreadMethod="pad" id="fill40"><stop offset="0" stop-color="#773ADC"/><stop offset="1" stop-color="#B77AF4"/></linearGradient><linearGradient x1="3.32138e-16" y1="356.963" x2="3.32138e-16" y2="346.115" gradientUnits="userSpaceOnUse" spreadMethod="pad" id="fill41"><stop offset="0" stop-color="#1988D9"/><stop offset="0.9" stop-color="#54AEF0"/><stop offset="1" stop-color="#54AEF0"/></linearGradient><linearGradient x1="-0.000374377" y1="356.964" x2="-0.000374377" y2="343.113" gradientUnits="userSpaceOnUse" spreadMethod="pad" id="fill42"><stop offset="0" stop-color="#198AB3"/><stop offset="0.01" stop-color="#198BB4"/><stop offset="0.44" stop-color="#27B2D7"/><stop offset="0.79" stop-color="#2FCBED"/><stop offset="1" stop-color="#32D4F5"/></linearGradient><linearGradient x1="2.81214" y1="338.744" x2="10.2456" y2="345.21" gradientUnits="userSpaceOnUse" spreadMethod="pad" id="fill43"><stop offset="0" stop-color="#005BA1"/><stop offset="0.07" stop-color="#0060A9"/><stop offset="0.355" stop-color="#0071C8"/><stop offset="0.515" stop-color="#0078D4"/><stop offset="0.64" stop-color="#0074CD"/><stop offset="0.82" stop-color="#006ABB"/><stop offset="1" stop-color="#005BA1"/></linearGradient><linearGradient x1="1.86131e-16" y1="356.965" x2="1.86131e-16" y2="350.884" gradientUnits="userSpaceOnUse" spreadMethod="pad" id="fill44"><stop offset="0" stop-color="#1988D9"/><stop offset="0.9" stop-color="#54AEF0"/><stop offset="1" stop-color="#54AEF0"/></linearGradient><linearGradient x1="-0.000182572" y1="356.964" x2="-0.000182572" y2="349.201" gradientUnits="userSpaceOnUse" spreadMethod="pad" id="fill45"><stop offset="0" stop-color="#198AB3"/><stop offset="0.01" stop-color="#198BB4"/><stop offset="0.44" stop-color="#27B2D7"/><stop offset="0.79" stop-color="#2FCBED"/><stop offset="1" stop-color="#32D4F5"/></linearGradient><linearGradient x1="2.81214" y1="338.744" x2="10.2456" y2="345.21" gradientUnits="userSpaceOnUse" spreadMethod="pad" id="fill46"><stop offset="0" stop-color="#005BA1"/><stop offset="0.07" stop-color="#0060A9"/><stop offset="0.355" stop-color="#0071C8"/><stop offset="0.515" stop-color="#0078D4"/><stop offset="0.64" stop-color="#0074CD"/><stop offset="0.82" stop-color="#006ABB"/><stop offset="1" stop-color="#005BA1"/></linearGradient><linearGradient x1="1.86131e-16" y1="356.965" x2="1.86131e-16" y2="350.884" gradientUnits="userSpaceOnUse" spreadMethod="pad" id="fill47"><stop offset="0" stop-color="#1988D9"/><stop offset="0.9" stop-color="#54AEF0"/><stop offset="1" stop-color="#54AEF0"/></linearGradient><linearGradient x1="-0.000182572" y1="356.964" x2="-0.000182572" y2="349.201" gradientUnits="userSpaceOnUse" spreadMethod="pad" id="fill48"><stop offset="0" stop-color="#198AB3"/><stop offset="0.01" stop-color="#198BB4"/><stop offset="0.44" stop-color="#27B2D7"/><stop offset="0.79" stop-color="#2FCBED"/><stop offset="1" stop-color="#32D4F5"/></linearGradient><linearGradient x1="2.81214" y1="338.744" x2="10.2456" y2="345.21" gradientUnits="userSpaceOnUse" spreadMethod="pad" id="fill49"><stop offset="0" stop-color="#005BA1"/><stop offset="0.07" stop-color="#0060A9"/><stop offset="0.355" stop-color="#0071C8"/><stop offset="0.515" stop-color="#0078D4"/><stop offset="0.64" stop-color="#0074CD"/><stop offset="0.82" stop-color="#006ABB"/><stop offset="1" stop-color="#005BA1"/></linearGradient><linearGradient x1="-0.567223" y1="356.387" x2="0.57654" y2="355.243" gradientUnits="userSpaceOnUse" spreadMethod="pad" id="fill50"><stop offset="0" stop-color="#5E9624"/><stop offset="0.82" stop-color="#86D633"/><stop offset="1" stop-color="#86D633"/></linearGradient><linearGradient x1="-0.530497" y1="356.433" x2="0.530624" y2="355.371" gradientUnits="userSpaceOnUse" spreadMethod="pad" id="fill51"><stop offset="0" stop-color="#5E9624"/><stop offset="0.82" stop-color="#86D633"/><stop offset="1" stop-color="#86D633"/></linearGradient><linearGradient x1="-0.566007" y1="356.389" x2="0.574696" y2="355.248" gradientUnits="userSpaceOnUse" spreadMethod="pad" id="fill52"><stop offset="0" stop-color="#5E9624"/><stop offset="0.82" stop-color="#86D633"/><stop offset="1" stop-color="#86D633"/></linearGradient><linearGradient x1="-0.566007" y1="356.389" x2="0.574696" y2="355.248" gradientUnits="userSpaceOnUse" spreadMethod="pad" id="fill53"><stop offset="0" stop-color="#5E9624"/><stop offset="0.82" stop-color="#86D633"/><stop offset="1" stop-color="#86D633"/></linearGradient></defs><g clip-path="url(#clip0)"><path d="M98.2913 266.56C100.302 266.56 101.932 268.19 101.932 270.2L101.932 353.323C101.932 355.333 100.302 356.963 98.2913 356.963L3.64042 356.963C1.62987 356.963 0 355.333 0 353.323L0 270.2C-7.1852e-16 268.19 1.62987 266.56 3.64042 266.56Z" stroke="#D8D8D8" stroke-width="0.910105" stroke-linecap="round" stroke-linejoin="round" stroke-miterlimit="3" fill="#E6E6E6" fill-rule="evenodd" transform="matrix(1.0431 0 0 1 180.896 -131.442)"/><path d="M191.122 304.22C193.133 304.22 194.762 305.849 194.762 307.86L194.762 353.323C194.762 355.333 193.133 356.963 191.122 356.963L3.64042 356.963C1.62987 356.963 0 355.333 0 353.323L0 307.86C-7.1852e-16 305.849 1.62987 304.22 3.64042 304.22Z" stroke="#D8D8D8" stroke-width="0.910105" stroke-linecap="round" stroke-linejoin="round" stroke-miterlimit="3" fill="#E6E6E6" fill-rule="evenodd" transform="matrix(1.0431 0 0 1 329.886 -211.007)"/><text font-family="Segoe UI Semibold,Segoe UI Semibold_MSFontService,sans-serif" font-weight="600" font-size="21" transform="matrix(0.421926 0 0 0.404491 336.447 103)">Visualize</text><path d="M191.122 304.22C193.133 304.22 194.762 305.849 194.762 307.86L194.762 353.323C194.762 355.333 193.133 356.963 191.122 356.963L3.64042 356.963C1.62987 356.963 0 355.333 0 353.323L0 307.86C-7.1852e-16 305.849 1.62987 304.22 3.64042 304.22Z" stroke="#D8D8D8" stroke-width="0.910105" stroke-linecap="round" stroke-linejoin="round" stroke-miterlimit="3" fill="#E6E6E6" fill-rule="evenodd" transform="matrix(1.0431 0 0 1 329.886 -272.246)"/><text font-family="Segoe UI Semibold,Segoe UI Semibold_MSFontService,sans-serif" font-weight="600" font-size="21" transform="matrix(0.421926 0 0 0.404491 336.447 41)">Insights</text><path d="M191.122 304.22C193.133 304.22 194.762 305.849 194.762 307.86L194.762 353.323C194.762 355.333 193.133 356.963 191.122 356.963L3.64042 356.963C1.62987 356.963 0 355.333 0 353.323L0 307.86C-7.1852e-16 305.849 1.62987 304.22 3.64042 304.22Z" stroke="#D8D8D8" stroke-width="0.910105" stroke-linecap="round" stroke-linejoin="round" stroke-miterlimit="3" fill="#E6E6E6" fill-rule="evenodd" transform="matrix(1.0431 0 0 1 329.886 -149.767)"/><text font-family="Segoe UI Semibold,Segoe UI Semibold_MSFontService,sans-serif" font-weight="600" font-size="21" transform="matrix(0.421926 0 0 0.404491 336.447 164)">Analyze</text><path d="M191.122 304.22C193.133 304.22 194.762 305.849 194.762 307.86L194.762 353.323C194.762 355.333 193.133 356.963 191.122 356.963L3.64042 356.963C1.62987 356.963 0 355.333 0 353.323L0 307.86C-7.1852e-16 305.849 1.62987 304.22 3.64042 304.22Z" stroke="#D8D8D8" stroke-width="0.910105" stroke-linecap="round" stroke-linejoin="round" stroke-miterlimit="3" fill="#E6E6E6" fill-rule="evenodd" transform="matrix(1.0431 0 0 1 329.886 -88.8463)"/><text font-family="Segoe UI Semibold,Segoe UI Semibold_MSFontService,sans-serif" font-weight="600" font-size="21" transform="matrix(0.421926 0 0 0.404491 336.447 225)">Respond</text><path d="M191.122 304.22C193.133 304.22 194.762 305.849 194.762 307.86L194.762 353.323C194.762 355.333 193.133 356.963 191.122 356.963L3.64042 356.963C1.62987 356.963 0 355.333 0 353.323L0 307.86C-7.1852e-16 305.849 1.62987 304.22 3.64042 304.22Z" stroke="#D8D8D8" stroke-width="0.910105" stroke-linecap="round" stroke-linejoin="round" stroke-miterlimit="3" fill="#E6E6E6" fill-rule="evenodd" transform="matrix(1.0431 0 0 1 329.886 -28.3385)"/><text font-family="Segoe UI Semibold,Segoe UI Semibold_MSFontService,sans-serif" font-weight="600" font-size="21" transform="matrix(0.421926 0 0 0.404491 338.881 285)">Integrate</text><path d="M0 52.9883C3.42604 52.9883 6.20085 57.1546 6.20085 62.2956L6.20085 347.656C6.20085 352.797 3.42604 356.963 0 356.963" stroke="#A5A5A5" stroke-width="0.910105" stroke-miterlimit="3" fill="none" fill-rule="evenodd" transform="matrix(-1.0431 1.22465e-16 -1.27744e-16 -1 322.217 385.296)"/><text fill="#0070C0" font-family="Segoe UI Semibold,Segoe UI Semibold_MSFontService,sans-serif" font-weight="600" font-size="24" transform="matrix(0.421926 0 0 0.404491 191.077 33)">Azure Monitor</text><path d="M19.2141 347.39C19.2141 352.677 14.9129 356.963 9.60706 356.963 4.30123 356.963-2.22193e-07 352.677-2.22193e-07 347.39-2.22193e-07 342.102 4.30123 337.816 9.60706 337.816 14.9129 337.816 19.2141 342.102 19.2141 347.39Z" fill="url(#fill1)" fill-rule="evenodd" transform="matrix(1.0431 0 0 1 165.559 -317.885)"/><path d="M16.7281 348.633C16.7281 353.234 12.9834 356.963 8.36406 356.963 3.74472 356.963-2.03677e-07 353.234-2.03677e-07 348.633-2.03677e-07 344.033 3.74472 340.303 8.36406 340.303 12.9834 340.303 16.7281 344.033 16.7281 348.633Z" fill="#FFFFFF" fill-rule="evenodd" transform="matrix(1.0431 0 0 1 166.856 -319.128)"/><path d="M0 352.441C0.114977 354.148 0.846709 355.755 2.05886 356.963L4.31592 354.702C3.70469 354.091 3.30864 353.297 3.18739 352.441L0 352.441Z" fill="#9CEBFF" fill-rule="evenodd" transform="matrix(1.0431 0 0 1 168.177 -322.44)"/><path d="M4.1703 354.747C3.0065 353.73 1.54158 353.124 1.69731e-07 353.019L0 356.17C0.705202 356.252 1.37429 356.526 1.93347 356.963L4.1703 354.747Z" fill="#32BEDD" fill-rule="evenodd" transform="matrix(1.0431 0 0 1 176.099 -330.589)"/><path d="M0 354.702 2.2611 356.963C2.82028 356.526 3.48937 356.252 4.19457 356.17L4.19457 352.975C2.64452 353.074 1.17029 353.681-4.62903e-08 354.702Z" fill="#32BEDD" fill-rule="evenodd" transform="matrix(1.0431 0 0 1 170.712 -330.544)"/><path d="M0 355.03C0.430965 355.593 0.707058 356.26 0.800892 356.963L3.95592 356.963C3.85374 355.427 3.2449 353.967 2.2247 352.813L0 355.03Z" fill="#32BEDD" fill-rule="evenodd" transform="matrix(1.0431 0 0 1 178.859 -327.955)"/><path d="M3.95592 355.03 1.69482 352.769C0.678711 353.939 0.0822731 355.415 2.31452e-08 356.963L3.15503 356.963C3.24886 356.26 3.52496 355.593 3.95592 355.03Z" fill="#50E6FF" fill-rule="evenodd" transform="matrix(1.0431 0 0 1 168.177 -327.955)"/><path d="M5.30288 354.455C5.19864 354.202 4.91246 354.077 4.65569 354.172L0 356.049 0.359997 356.963 5.01973 355.123C5.27755 355.028 5.40946 354.742 5.3144 354.484 5.31084 354.474 5.307 354.465 5.30288 354.455Z" fill="#F04049" fill-rule="evenodd" transform="matrix(1.0431 0 0 1 176.111 -327.21)"/><path d="M2.71252 355.607C2.71252 356.356 2.1053 356.963 1.35626 356.963 0.607217 356.963-3.00887e-08 356.356-3.00887e-08 355.607-3.00887e-08 354.858 0.607217 354.251 1.35626 354.251 2.1053 354.251 2.71252 354.858 2.71252 355.607Z" fill="url(#fill2)" fill-rule="evenodd" transform="matrix(1.0431 0 0 1 174.166 -326.102)"/><path d="M3.25211 356.846 4.06513 355.908 4.06513 353.408 0 353.408 0 355.908 0.817072 356.846C0.86578 356.908 0.933553 356.95 1.0084 356.964L3.0175 356.963C3.10663 356.96 3.19041 356.917 3.24887 356.845Z" fill="#CECECE" fill-rule="evenodd" transform="matrix(1.0431 0 0 1 354.834 -292.235)"/><path d="M5.94602 342.199C2.67278 342.165-0.0071349 344.977-0.0397504 348.482-0.0422369 348.749-0.0289604 349.017-7.85392e-08 349.282 0.271009 351.944 2.63728 353.181 3.30874 356.555 3.35997 356.791 3.55526 356.96 3.78199 356.963L8.11004 356.963C8.33676 356.96 8.53205 356.791 8.5833 356.555 9.2588 353.181 11.6008 351.944 11.892 349.282 12.2719 345.801 9.94417 342.649 6.69287 342.242 6.445 342.211 6.19555 342.196 5.94602 342.199Z" fill="url(#fill3)" fill-rule="evenodd" transform="matrix(1.0431 0 0 1 350.73 -295.791)"/><path d="M6.25747 346.997C5.48558 347.028 4.88115 347.719 4.90243 348.546L4.90243 349.379 2.77885 349.379 2.77885 348.546C2.79429 347.707 2.17164 347.014 1.38813 346.997 1.37845 346.997 1.36877 346.997 1.35909 346.997 0.585614 347.026-0.0212218 347.717-4.24327e-08 348.546-0.0242859 349.378 0.581905 350.076 1.35909 350.111L2.00223 350.111 2.00223 356.575C2.00892 356.789 2.17651 356.957 2.37656 356.949 2.56722 356.943 2.7203 356.779 2.72667 356.575L2.72627 350.111 4.90243 350.111 4.90243 356.575C4.89576 356.789 5.0525 356.969 5.25256 356.975 5.45258 356.983 5.6202 356.815 5.62687 356.601 5.62716 356.592 5.62716 356.583 5.62687 356.575L5.62647 350.111 6.25747 350.111C7.03511 350.082 7.64366 349.384 7.61677 348.551 7.61668 348.549 7.61664 348.547 7.61656 348.546 7.6378 347.717 7.03094 347.026 6.25747 346.997ZM2.00223 349.379 1.31864 349.379C0.918174 349.344 0.615611 348.976 0.635051 348.546 0.617706 348.117 0.919703 347.751 1.31864 347.717 1.71758 347.751 2.01957 348.117 2.00223 348.546L2.00223 349.379ZM6.31006 349.379 5.62647 349.379 5.62647 348.505C5.57304 348.104 5.83304 347.734 6.20724 347.676 6.58139 347.619 6.92808 347.897 6.98151 348.298 6.99069 348.367 6.99069 348.437 6.98151 348.505 7.02763 348.937 6.73829 349.327 6.33526 349.377 6.32684 349.377 6.31847 349.378 6.31006 349.379Z" fill="url(#fill4)" fill-rule="evenodd" transform="matrix(1.0431 0 0 1 352.986 -297.041)"/><path d="M0 356.963 4.10558 356.114 4.10558 355.628 0 356.49 0 356.963Z" fill="#999999" fill-rule="evenodd" transform="matrix(1.0431 0 0 1 354.791 -294.067)"/><path d="M4.10558 356.154 4.10558 355.681 0 356.555 0 356.595 0.311458 356.963 4.10558 356.154Z" fill="#999999" fill-rule="evenodd" transform="matrix(1.0431 0 0 1 354.791 -292.925)"/><text font-family="Segoe UI Semibold,Segoe UI Semibold_MSFontService,sans-serif" font-weight="600" font-size="18" transform="matrix(0.421926 0 0 0.404491 337.031 73)">Application<tspan font-size="18" x="288.685" y="2.47224">Network</tspan></text><path d="M0 363.765C0.000850422 364.123 0.27237 364.413 0.607011 364.413L5.06668 364.413C5.40132 364.413 5.67283 364.123 5.67369 363.765L5.67369 363.682C5.67497 363.323 5.40426 363.031 5.069 363.03 5.06821 363.03 5.06747 363.03 5.06668 363.03L0.607011 363.03C0.271768 363.03-1.9627e-06 363.321-4.39839e-06 363.68-4.40401e-06 363.681-2.93394e-06 363.681 1.18141e-08 363.682L0 363.765Z" fill="#198AB3" fill-rule="evenodd" transform="matrix(0.722507 -0.692651 0.722507 0.692651 202.926 -188.294)"/><path d="M11.2246 348.396C11.0405 347.913 10.8029 347.455 10.5168 347.033 8.56384 344.247 4.87165 343.684 2.27001 345.775 2.26838 345.777 2.26677 345.778 2.26515 345.779L2.20852 345.832C1.1839 346.675 0.449762 347.859 0.121347 349.197 0.121347 349.419 0.0283144 349.642 0 349.864-0.282309 351.905 0.383623 353.965 1.7838 355.382 1.84801 355.454 1.91695 355.522 1.9901 355.584L2.20043 355.766C2.47671 355.999 2.77338 356.202 3.08627 356.373L3.1793 356.433 3.34109 356.506 3.47458 356.575 3.61615 356.636 3.76581 356.696 3.89929 356.745 4.08536 356.805 4.19053 356.805 4.46558 356.886 4.7649 356.959 4.84176 356.959C4.91986 356.965 4.99825 356.965 5.07636 356.959L6.5123 356.959C6.75561 356.928 6.99632 356.876 7.2323 356.805 7.98894 356.589 8.69728 356.212 9.31543 355.697 9.71498 355.365 10.0738 354.981 10.3833 354.552 11.6481 352.798 11.967 350.465 11.2246 348.396ZM9.8534 347.458 8.70465 347.458C8.51219 346.854 8.23091 346.288 7.87139 345.779 8.66476 346.145 9.35701 346.723 9.88171 347.458L9.8534 347.458ZM6.16444 345.435C6.97553 345.817 7.59428 346.554 7.8633 347.458L6.16444 347.458 6.16444 345.435ZM6.16444 348.307 8.11813 348.307C8.29858 349.002 8.4031 349.718 8.42959 350.439L6.16444 350.439 6.16444 348.307ZM6.16444 351.248 8.42959 351.248C8.40399 351.973 8.29947 352.692 8.11813 353.392L6.19276 353.392 6.19276 351.207 6.16444 351.248ZM3.21975 349.804C3.26477 349.284 3.35276 348.77 3.48267 348.267L5.43636 348.267 5.43636 350.398 3.1793 350.398C3.19143 350.196 3.19952 349.994 3.21975 349.804ZM5.43636 345.395 5.43636 347.417 3.74559 347.417C4.00838 346.512 4.62539 345.774 5.43636 345.395ZM2.66964 346.467C2.99304 346.211 3.34163 345.994 3.70918 345.82 3.35306 346.332 3.07334 346.902 2.87998 347.506L1.7838 347.506C2.03816 347.122 2.33567 346.773 2.66964 346.467ZM1.26606 348.267 2.72627 348.267C2.6193 348.712 2.54358 349.165 2.49975 349.622 2.49975 349.872 2.45526 350.135 2.45526 350.398L0.699769 350.398C0.732998 350.144 0.780271 349.891 0.841341 349.642 0.931098 349.167 1.07369 348.705 1.26606 348.267ZM0.699769 351.207 2.42695 351.207C2.44961 351.932 2.55004 352.651 2.72627 353.351L1.26606 353.351C0.94064 352.686 0.747799 351.956 0.699769 351.207ZM1.7838 354.18 2.92447 354.18C3.11692 354.784 3.39822 355.351 3.75772 355.859 2.97697 355.488 2.29751 354.911 1.7838 354.18ZM5.45658 356.203C4.64562 355.823 4.02861 355.085 3.76581 354.18L5.45658 354.18 5.45658 356.203ZM5.45658 353.331 3.48267 353.331C3.30417 352.632 3.20235 351.912 3.1793 351.187L5.43636 351.187 5.43636 353.351 5.45658 353.331ZM6.90061 355.778C6.70092 355.971 6.4651 356.115 6.20894 356.203L6.20894 354.18 7.91184 354.18C7.68347 354.794 7.33128 355.347 6.88039 355.798L6.90061 355.778ZM8.95947 355.119C8.62601 355.397 8.26027 355.628 7.87139 355.806 8.23091 355.298 8.51219 354.731 8.70465 354.128L9.88171 354.128C9.61568 354.499 9.30568 354.832 8.95947 355.119ZM10.355 353.319 8.93925 353.319C9.09777 352.617 9.18991 351.9 9.2143 351.179L10.9213 351.179C10.8794 351.938 10.6863 352.679 10.355 353.351L10.355 353.319ZM9.2143 350.398C9.18939 349.68 9.09724 348.966 8.93925 348.267L10.3631 348.267C10.6826 348.93 10.8751 349.655 10.9293 350.398L9.2143 350.398Z" fill="url(#fill5)" fill-rule="evenodd" transform="matrix(1.0431 0 0 1 470.048 -297.694)"/><path d="M7.62708 352.879C7.62708 355.135 5.9197 356.963 3.81354 356.963 1.70738 356.963 1.82075e-07 355.135 1.82075e-07 352.879 1.82075e-07 350.624 1.70738 348.796 3.81354 348.796 5.9197 348.796 7.62708 350.624 7.62708 352.879Z" fill="#50E6FF" fill-rule="evenodd" transform="matrix(1.0431 0 0 1 467.301 -295.515)"/><path d="M5.98404 353.759C5.98404 355.529 4.64447 356.963 2.99202 356.963 1.33957 356.963-6.63495e-08 355.529-6.63495e-08 353.759-6.63495e-08 351.989 1.33957 350.554 2.99202 350.554 4.64447 350.554 5.98404 351.989 5.98404 353.759Z" fill="#FFFFFF" fill-rule="evenodd" transform="matrix(1.0431 0 0 1 468.148 -296.465)"/><path d="M1.19729 355.082 1.95369 356.963 2.71818 354.548 3.34918 355.924 4.1339 354.508 5.35141 354.508C5.32387 354.346 5.28601 354.187 5.23816 354.031L3.92761 354.031 3.41795 354.953 2.63324 353.355 1.90515 355.649 1.24583 354.023 0.432805 355.608 0 355.608C0.0327256 355.772 0.0801365 355.932 0.141572 356.086L0.687635 356.086 1.19729 355.082Z" fill="#76BC2D" fill-rule="evenodd" transform="matrix(1.0431 0 0 1 468.414 -297.719)"/><text font-family="Segoe UI Semibold,Segoe UI Semibold_MSFontService,sans-serif" font-weight="600" font-size="18" transform="matrix(0.421926 0 0 0.404491 427.81 74)">VM</text><path d="M0 356.385C-0.000834129 356.704 0.239529 356.962 0.536865 356.963 0.537233 356.963 0.537605 356.963 0.537973 356.963L15.6174 356.963C15.9147 356.963 16.1556 356.704 16.1554 356.386 16.1554 356.386 16.1554 356.385 16.1554 356.385L16.1554 346.006C16.1541 345.688 15.9137 345.432 15.6174 345.431L0.537973 345.431C0.241676 345.432 0.00124663 345.688 1.73588e-08 346.006L0 356.385Z" fill="url(#fill6)" fill-rule="evenodd" transform="matrix(1.0431 0 0 1 425.333 -297.852)"/><path d="M2.69391 351.919 2.69391 355.272 0 356.963 0 353.598 2.69391 351.919Z" fill="#50E6FF" fill-rule="evenodd" transform="matrix(1.0431 0 0 1 433.758 -300.255)"/><path d="M5.38377 355.272 2.69391 356.963 0 355.272 2.69391 353.59 5.38377 355.272Z" fill="#C3F1FF" fill-rule="evenodd" transform="matrix(1.0431 0 0 1 430.95 -303.609)"/><path d="M2.69391 353.61 2.69391 356.963 0 355.272 0 351.919 2.69391 353.61Z" fill="#9CEBFF" fill-rule="evenodd" transform="matrix(1.0431 0 0 1 430.95 -300.255)"/><path d="M0 355.272 2.69391 353.598 2.69391 356.963 0 355.272Z" fill="#C3F1FF" fill-rule="evenodd" transform="matrix(1.0431 0 0 1 430.95 -300.255)"/><path d="M2.69391 355.272 0 353.598 0 356.963 2.69391 355.272Z" fill="#9CEBFF" fill-rule="evenodd" transform="matrix(1.0431 0 0 1 433.758 -300.255)"/><path d="M7.27679 356.001C5.67905 355.734 5.61838 354.504 5.61838 352.514L2.45122 352.514C2.45122 354.504 2.39459 355.734 0.796847 356.001 0.340255 356.056-0.00367395 356.471 1.15726e-08 356.963L8.07768 356.963C8.08112 356.47 7.735 356.054 7.27679 356.001Z" fill="url(#fill7)" fill-rule="evenodd" transform="matrix(1.0431 0 0 1 429.545 -293.403)"/><path d="M3.11458 355.296C3.11458 356.217 2.41736 356.963 1.55729 356.963 0.697222 356.963-3.85753e-08 356.217-3.85753e-08 355.296-3.85753e-08 354.374 0.697222 353.628 1.55729 353.628 2.41736 353.628 3.11458 354.374 3.11458 355.296Z" fill-rule="evenodd" transform="matrix(1.0431 0 0 1 495.37 -295.867)"/><path d="M3.11458 355.296C3.11458 356.217 2.41736 356.963 1.55729 356.963 0.697222 356.963-3.85753e-08 356.217-3.85753e-08 355.296-3.85753e-08 354.374 0.697222 353.628 1.55729 353.628 2.41736 353.628 3.11458 354.374 3.11458 355.296Z" fill-rule="evenodd" transform="matrix(1.0431 0 0 1 501.411 -295.867)"/><path d="M3.11458 355.296C3.11458 356.217 2.41736 356.963 1.55729 356.963 0.697222 356.963-3.85753e-08 356.217-3.85753e-08 355.296-3.85753e-08 354.374 0.697222 353.628 1.55729 353.628 2.41736 353.628 3.11458 354.374 3.11458 355.296Z" fill-rule="evenodd" transform="matrix(1.0431 0 0 1 507.288 -295.867)"/><text font-family="Segoe UI Semibold,Segoe UI Semibold_MSFontService,sans-serif" font-weight="600" font-size="18" transform="matrix(0.421926 0 0 0.404491 381.535 74)">Container</text><path d="M2.87998 351.527 0 352.097 0 356.304 2.87998 356.963 5.77209 355.721 5.77209 352.583 2.87998 351.527Z" fill="url(#fill8)" fill-rule="evenodd" transform="matrix(1.0431 0 0 1 391.232 -304.534)"/><path d="M0 352.097 0 356.304 2.91233 356.963 2.91233 351.567 0 352.097ZM1.22965 355.98 0.412581 355.81 0.412581 352.57 1.22965 352.433 1.22965 355.98ZM2.49975 356.231 1.56133 356.069 1.56133 352.368 2.49975 352.194 2.49975 356.231Z" fill="#341A6E" fill-rule="evenodd" transform="matrix(1.0431 0 0 1 391.232 -304.534)"/><path d="M2.87998 351.527 0 352.097 0 356.304 2.87998 356.963 5.764 355.713 5.764 352.583 2.87998 351.527Z" fill="url(#fill9)" fill-rule="evenodd" transform="matrix(1.0431 0 0 1 397.737 -304.48)"/><path d="M0 352.097 0 356.304 2.89211 356.963 2.89211 351.567 0 352.097ZM1.21752 355.98 0.404491 355.81 0.404491 352.57 1.21752 352.433 1.21752 355.98ZM2.48762 356.231 1.55325 356.069 1.55325 352.368 2.48762 352.182 2.48762 356.231Z" fill="#341A6E" fill-rule="evenodd" transform="matrix(1.0431 0 0 1 397.737 -304.48)"/><path d="M2.87998 351.527 0 352.097 0 356.304 2.87998 356.963 5.77209 355.721 5.77209 352.583 2.87998 351.527Z" fill="url(#fill10)" fill-rule="evenodd" transform="matrix(1.0431 0 0 1 388.153 -298.73)"/><path d="M0 352.13 0 356.304 2.91233 356.963 2.91233 351.567 0 352.13ZM1.21752 356.025 0.404491 355.843 0.404491 352.607 1.21752 352.453 1.21752 356.025ZM2.49975 356.304 1.56133 356.142 1.56133 352.401 2.49975 352.227 2.49975 356.304Z" fill="#341A6E" fill-rule="evenodd" transform="matrix(1.0431 0 0 1 388.143 -298.762)"/><path d="M2.87998 351.515 0 352.085 0 356.296 2.87998 356.963 5.764 355.713 5.764 352.57 2.87998 351.515Z" fill="url(#fill11)" fill-rule="evenodd" transform="matrix(1.0431 0 0 1 394.637 -298.762)"/><path d="M0 352.085 0 356.304 2.9002 356.963 2.9002 351.567 0 352.085ZM1.21752 355.98 0.404491 355.798 0.404491 352.562 1.21752 352.409 1.21752 355.98ZM2.48762 356.219 1.55325 356.057 1.55325 352.356 2.48762 352.182 2.48762 356.219Z" fill="#341A6E" fill-rule="evenodd" transform="matrix(1.0431 0 0 1 394.637 -298.762)"/><path d="M2.87998 351.527 0 352.097 0 356.304 2.87998 356.963 5.77209 355.721 5.77209 352.583 2.87998 351.527Z" fill="url(#fill12)" fill-rule="evenodd" transform="matrix(1.0431 0 0 1 401.121 -298.719)"/><path d="M0 352.142 0 356.304 2.91233 356.963 2.91233 351.567 0 352.142ZM1.22965 356.037 0.412581 355.851 0.412581 352.615 1.22965 352.465 1.22965 356.037ZM2.49975 356.272 1.56133 356.11 1.56133 352.409 2.49975 352.239 2.49975 356.272Z" fill="#341A6E" fill-rule="evenodd" transform="matrix(1.0431 0 0 1 401.121 -298.762)"/><path d="M2.87998 351.527 0 352.085 0 356.296 2.87998 356.963 5.77209 355.713 5.77209 352.583 2.87998 351.527Z" fill="url(#fill13)" fill-rule="evenodd" transform="matrix(1.0431 0 0 1 391.158 -292.861)"/><path d="M0 352.085 0 356.296 2.91233 356.963 2.91233 351.482 0 352.085ZM1.22965 355.98 0.412581 355.798 0.412581 352.562 1.22965 352.409 1.22965 355.98ZM2.49975 356.231 1.56133 356.069 1.56133 352.356 2.49975 352.182 2.49975 356.231Z" fill="#341A6E" fill-rule="evenodd" transform="matrix(1.0431 0 0 1 391.158 -292.861)"/><path d="M2.87998 351.527 0 352.097 0 356.304 2.87998 356.963 5.77209 355.721 5.77209 352.583 2.87998 351.527Z" fill="url(#fill14)" fill-rule="evenodd" transform="matrix(1.0431 0 0 1 397.653 -292.818)"/><path d="M0 352.097 0 356.304 2.91233 356.963 2.91233 351.567 0 352.097ZM1.22965 355.992 0.412581 355.81 0.412581 352.57 1.22965 352.421 1.22965 355.992ZM2.49975 356.231 1.56133 356.069 1.56133 352.368 2.49975 352.194 2.49975 356.231Z" fill="#341A6E" fill-rule="evenodd" transform="matrix(1.0431 0 0 1 397.653 -292.818)"/><text font-family="Segoe UI Semibold,Segoe UI Semibold_MSFontService,sans-serif" font-weight="600" font-size="18" transform="matrix(0.421926 0 0 0.404491 452.69 255)">Autoscale</text><path d="M0 356.603C-6.51158e-15 356.803 0.16172 356.964 0.36121 356.964L10.3752 356.963C10.5747 356.963 10.7364 356.801 10.7364 356.602L10.7352 350.156C10.7352 349.956 10.5735 349.794 10.374 349.794L0.359997 349.796C0.160506 349.796-0.00121348 349.957-0.00121348 350.157L0 356.603Z" fill="#005BA1" fill-rule="evenodd" transform="matrix(1.0431 0 0 1 455.535 -120.649)"/><path d="M1.7838 353.832 1.7838 355.924 0 356.963 0 354.88 1.7838 353.832Z" fill="#50E6FF" fill-rule="evenodd" transform="matrix(1.0431 0 0 1 461.139 -122.146)"/><path d="M3.57974 355.912 1.79594 356.963 0 355.912 1.79594 354.86 3.57974 355.912Z" fill="#C3F1FF" fill-rule="evenodd" transform="matrix(1.0431 0 0 1 459.267 -124.227)"/><path d="M1.79594 354.88 1.79594 356.963 0 355.924 0 353.832 1.79594 354.88Z" fill="#9CEBFF" fill-rule="evenodd" transform="matrix(1.0431 0 0 1 459.267 -122.146)"/><path d="M0 356.603C-6.51158e-15 356.803 0.16172 356.964 0.36121 356.964L10.3752 356.963C10.5747 356.963 10.7364 356.801 10.7364 356.602L10.7352 350.156C10.7352 349.956 10.5735 349.794 10.374 349.794L0.359997 349.796C0.160506 349.796-0.00121348 349.957-0.00121348 350.157L0 356.603Z" fill="#0078D4" fill-rule="evenodd" transform="matrix(1.0431 0 0 1 459.932 -116.54)"/><path d="M1.7838 353.832 1.7838 355.912 0 356.963 0 354.872 1.7838 353.832Z" fill="#50E6FF" fill-rule="evenodd" transform="matrix(1.0431 0 0 1 465.536 -118.027)"/><path d="M3.57974 355.924 1.79594 356.963 0 355.924 1.79594 354.872 3.57974 355.924Z" fill="#C3F1FF" fill-rule="evenodd" transform="matrix(1.0431 0 0 1 463.665 -120.118)"/><path d="M1.79594 354.872 1.79594 356.963 0 355.912 0 353.832 1.79594 354.872Z" fill="#9CEBFF" fill-rule="evenodd" transform="matrix(1.0431 0 0 1 463.665 -118.027)"/><path d="M0 356.603C-6.51158e-15 356.803 0.16172 356.964 0.36121 356.964L10.3752 356.963C10.5747 356.963 10.7364 356.801 10.7364 356.602L10.7352 350.156C10.7352 349.956 10.5735 349.794 10.374 349.794L0.359997 349.796C0.160506 349.796-0.00121348 349.957-0.00121348 350.157L0 356.603Z" fill="url(#fill15)" fill-rule="evenodd" transform="matrix(1.0431 0 0 1 463.166 -112.548)"/><path d="M1.7838 353.832 1.7838 355.912 0 356.963 0 354.872 1.7838 353.832Z" fill="#50E6FF" fill-rule="evenodd" transform="matrix(1.0431 0 0 1 468.77 -114.034)"/><path d="M3.57974 355.912 1.79594 356.963 0 355.912 1.79594 354.86 3.57974 355.912Z" fill="#C3F1FF" fill-rule="evenodd" transform="matrix(1.0431 0 0 1 466.899 -116.115)"/><path d="M1.79594 354.88 1.79594 356.963 0 355.912 0 353.832 1.79594 354.88Z" fill="#9CEBFF" fill-rule="evenodd" transform="matrix(1.0431 0 0 1 466.899 -114.034)"/><path d="M0 355.912 1.79594 354.872 1.79594 356.963 0 355.912Z" fill="#C3F1FF" fill-rule="evenodd" transform="matrix(1.0431 0 0 1 466.899 -114.034)"/><path d="M1.7838 355.912 0 354.872 0 356.963 1.7838 355.912Z" fill="#9CEBFF" fill-rule="evenodd" transform="matrix(1.0431 0 0 1 468.77 -114.034)"/><path d="M4.77704 356.357C3.71727 356.187 3.71727 355.422 3.71727 354.233L1.59369 354.233C1.59369 355.467 1.59369 356.231 0.529883 356.357 0.229422 356.403 0.00598719 356.659-2.31452e-08 356.963L5.31097 356.963C5.30466 356.658 5.07911 356.401 4.77704 356.357Z" fill="url(#fill16)" fill-rule="evenodd" transform="matrix(1.0431 0 0 1 466.024 -109.766)"/><text font-family="Segoe UI Semibold,Segoe UI Semibold_MSFontService,sans-serif" font-weight="600" font-size="18" transform="matrix(0.421926 0 0 0.404491 389.189 254)">Alerts and <tspan font-size="18" x="2.17002" y="22.2502">Actions</tspan></text><path d="M14.5617 345.35 14.5617 354.629C14.5599 354.903 14.3375 355.123 14.0641 355.123L10.1932 355.123C10.1255 355.123 10.0692 355.175 10.0645 355.243L10.0637 356.745C10.0673 356.877 9.96281 356.988 9.83042 356.991 9.77553 356.992 9.72186 356.975 9.67825 356.942L7.3496 355.151 0.497524 355.151C0.223196 355.152 0.000447161 354.929 7.71506e-09 354.655-8.7209e-07 354.655-8.7209e-07 354.654 7.71506e-09 354.654L0 345.35C-0.00491513 345.076 0.213451 344.85 0.487735 344.845 0.490999 344.845 0.49426 344.845 0.497524 344.845L14.0641 344.845C14.3385 344.844 14.5613 345.066 14.5618 345.341 14.5618 345.344 14.5617 345.347 14.5617 345.35Z" fill="url(#fill17)" fill-rule="evenodd" transform="matrix(1.0431 0 0 1 393.969 -114.52)"/><path d="M1.48853 356.963 0.497524 356.963C0.327583 356.973 0.181834 356.843 0.171985 356.673 0.171958 356.673 0.171933 356.672 0.171909 356.672L0 351.652C-0.00469129 351.487 0.125645 351.349 0.291113 351.344 0.293984 351.344 0.296856 351.344 0.299728 351.344L1.75549 351.345C1.92102 351.344 2.05544 351.478 2.05572 351.644 2.05573 351.65 2.05557 351.656 2.05522 351.662L1.79189 356.68C1.78287 356.839 1.65129 356.963 1.49217 356.963Z" fill="#FFFFFF" fill-rule="evenodd" transform="matrix(1.0431 0 0 1 400.492 -120.025)"/><path d="M0 356.441C0.000445466 356.729 0.233799 356.963 0.521793 356.963L0.926284 356.963C1.21428 356.963 1.44763 356.729 1.44808 356.441L1.44808 356.037C1.44763 355.749 1.21428 355.516 0.926284 355.515L0.521793 355.515C0.233799 355.516 0.00044545 355.749-1.54301e-08 356.037L0 356.441Z" fill="#FFFFFF" fill-rule="evenodd" transform="matrix(1.0431 0 0 1 400.787 -117.73)"/><path d="M6.86017 344.323 0 351.187 0 355.519C0.000446311 356.316 0.6467 356.963 1.44403 356.963L14.4444 356.963C15.2417 356.963 15.888 356.316 15.8884 355.519L15.8884 342.519C15.888 341.722 15.2417 341.075 14.4444 341.075L13.7203 341.075 8.66824 346.131 6.86017 344.323Z" fill="url(#fill18)" fill-rule="evenodd" transform="matrix(1.0431 0 0 1 348.138 -231.062)"/><path d="M6.71455 348.659 0.372132 355.001C0.00111344 355.287-0.137268 355.783 0.0323593 356.219 0.287167 356.679 0.772282 356.964 1.29842 356.963L14.2988 356.963C15.0961 356.963 15.7423 356.316 15.7428 355.519L15.7428 343.243 8.51858 350.463 6.71455 348.659Z" fill="url(#fill19)" fill-rule="evenodd" transform="matrix(1.0431 0 0 1 348.291 -231.062)"/><path d="M8.66824 351.907 13.7203 346.851 1.44403 346.851C0.6467 346.851 0.000446283 347.498-2.70027e-08 348.295L0 356.963 6.86017 350.103 8.66824 351.907Z" fill="url(#fill20)" fill-rule="evenodd" transform="matrix(1.0431 0 0 1 348.138 -236.839)"/><text font-family="Segoe UI Semibold,Segoe UI Semibold_MSFontService,sans-serif" font-weight="600" font-size="18" transform="matrix(0.421926 0 0 0.404491 337.917 138)">Workbooks</text><path d="M0.65123 341.839 20.7463 341.839C21.0828 341.826 21.3676 342.086 21.3854 342.422L21.3854 356.381C21.3676 356.717 21.0828 356.977 20.7463 356.963L0.65123 356.963C0.312413 356.977 0.0239892 356.719 5.78628e-09 356.381L0 342.446C0.0118305 342.099 0.302682 341.828 0.649637 341.839 0.650167 341.839 0.650701 341.839 0.65123 341.839Z" fill="url(#fill21)" fill-rule="evenodd" transform="matrix(1.0431 0 0 1 396.997 -230.339)"/><path d="M0 356.789C-3.68242e-15 356.886 0.0782338 356.964 0.17474 356.964L1.64628 356.963C1.74279 356.963 1.82102 356.885 1.82102 356.788L1.82021 346.03C1.82021 345.933 1.74198 345.855 1.64547 345.855L0.173931 345.856C0.0774248 345.856-0.000808978 345.934-0.000808978 346.031L0 356.789Z" fill="#FFFFFF" fill-rule="evenodd" fill-opacity="0.9" transform="matrix(1.0431 0 0 1 412.439 -232.489)"/><path d="M0 356.773C3.48033e-15 356.878 0.0845722 356.962 0.188897 356.962L9.99497 356.963C10.0993 356.963 10.1839 356.879 10.1839 356.774L10.1851 354.852C10.1851 354.747 10.1005 354.663 9.99618 354.663L0.190111 354.662C0.0857856 354.662 0.00121347 354.746 0.00121347 354.851L0 356.773Z" fill="#FFFFFF" fill-rule="evenodd" fill-opacity="0.6" transform="matrix(1.0431 0 0 1 399.015 -232.476)"/><path d="M0 356.83C1.45949e-15 356.904 0.0601239 356.964 0.134291 356.964L1.68673 356.963C1.76089 356.963 1.82102 356.903 1.82102 356.829L1.82021 350.536C1.82021 350.462 1.76009 350.402 1.68592 350.402L0.133482 350.398C0.059315 350.398-0.000808978 350.459-0.000808978 350.533L0 356.83Z" fill="#FFFFFF" fill-rule="evenodd" fill-opacity="0.9" transform="matrix(1.0431 0 0 1 415.35 -232.489)"/><path d="M7.96847 351.09 5.43636 355.592 2.75863 352.866 0 356.445 0.647186 356.951 2.83548 354.128 5.61433 356.963 8.68442 351.503 7.96847 351.09Z" fill="#FFFFFF" fill-rule="evenodd" transform="matrix(1.0431 0 0 1 399.987 -237.051)"/><path d="M2.08151 355.916C2.08151 356.495 1.61555 356.963 1.04076 356.963 0.465962 356.963-1.85161e-08 356.495-1.85161e-08 355.916-1.85161e-08 355.338 0.465962 354.87 1.04076 354.87 1.61555 354.87 2.08151 355.338 2.08151 355.916Z" fill="#FFFFFF" fill-rule="evenodd" transform="matrix(1.0431 0 0 1 401.812 -239.474)"/><path d="M2.08151 355.916C2.08151 356.495 1.61555 356.963 1.04076 356.963 0.465962 356.963-1.85161e-08 356.495-1.85161e-08 355.916-1.85161e-08 355.338 0.465962 354.87 1.04076 354.87 1.61555 354.87 2.08151 355.338 2.08151 355.916Z" fill="#FFFFFF" fill-rule="evenodd" transform="matrix(1.0431 0 0 1 404.756 -236.879)"/><path d="M2.08151 355.916C2.08151 356.495 1.61555 356.963 1.04076 356.963 0.465962 356.963-1.85161e-08 356.495-1.85161e-08 355.916-1.85161e-08 355.338 0.465962 354.87 1.04076 354.87 1.61555 354.87 2.08151 355.338 2.08151 355.916Z" fill="#FFFFFF" fill-rule="evenodd" transform="matrix(1.0431 0 0 1 407.489 -241.542)"/><path d="M2.08151 355.916C2.08151 356.495 1.61555 356.963 1.04076 356.963 0.465962 356.963-1.85161e-08 356.495-1.85161e-08 355.916-1.85161e-08 355.338 0.465962 354.87 1.04076 354.87 1.61555 354.87 2.08151 355.338 2.08151 355.916Z" fill="#FFFFFF" fill-rule="evenodd" transform="matrix(1.0431 0 0 1 399.351 -236.423)"/><text font-family="Segoe UI Semibold,Segoe UI Semibold_MSFontService,sans-serif" font-weight="600" font-size="18" transform="matrix(0.421926 0 0 0.404491 387.731 138)">Dashboards<tspan font-size="18" x="-64.359" y="133.501">Metric </tspan><tspan font-size="18" x="-71.859" y="155.751">Explorer</tspan></text><path d="M11.7383 348.307 8.00892 354.945 4.06513 350.924 0 356.199 0.954599 356.943 4.17839 352.785 8.27184 356.963 12.794 348.918 11.7383 348.307Z" fill="#B796F9" fill-rule="evenodd" transform="matrix(1.0431 0 0 1 364.616 -181.843)"/><path d="M3.06523 355.421C3.06523 356.273 2.37906 356.963 1.53262 356.963 0.686176 356.963 1.38871e-08 356.273 1.38871e-08 355.421 1.38871e-08 354.569 0.686176 353.879 1.53262 353.879 2.37906 353.879 3.06523 354.569 3.06523 355.421Z" fill="url(#fill22)" fill-rule="evenodd" transform="matrix(1.0431 0 0 1 367.307 -185.414)"/><path d="M3.06523 355.421C3.06523 356.273 2.37906 356.963 1.53262 356.963 0.686176 356.963 1.38871e-08 356.273 1.38871e-08 355.421 1.38871e-08 354.569 0.686176 353.879 1.53262 353.879 2.37906 353.879 3.06523 354.569 3.06523 355.421Z" fill="url(#fill23)" fill-rule="evenodd" transform="matrix(1.0431 0 0 1 371.645 -181.591)"/><path d="M3.06523 355.421C3.06523 356.273 2.37906 356.963 1.53262 356.963 0.686176 356.963 1.38871e-08 356.273 1.38871e-08 355.421 1.38871e-08 354.569 0.686176 353.879 1.53262 353.879 2.37906 353.879 3.06523 354.569 3.06523 355.421Z" fill="url(#fill24)" fill-rule="evenodd" transform="matrix(1.0431 0 0 1 375.671 -188.461)"/><path d="M3.06523 355.421C3.06523 356.273 2.37906 356.963 1.53262 356.963 0.686176 356.963 1.38871e-08 356.273 1.38871e-08 355.421 1.38871e-08 354.569 0.686176 353.879 1.53262 353.879 2.37906 353.879 3.06523 354.569 3.06523 355.421Z" fill="url(#fill25)" fill-rule="evenodd" transform="matrix(1.0431 0 0 1 363.68 -180.918)"/><path d="M0 356.7C-1.07329e-14 356.845 0.11717 356.962 0.261706 356.962L2.14785 356.963C2.29238 356.963 2.40955 356.846 2.40955 356.702L2.41077 350.139C2.41077 349.995 2.2936 349.878 2.14906 349.878L0.262919 349.881C0.118383 349.881 0.00121346 349.998 0.00121346 350.142L0 356.7Z" fill="#0078D4" fill-rule="evenodd" transform="matrix(1.0431 0 0 1 368.028 -175.656)"/><path d="M0 356.7C-1.07329e-14 356.845 0.11717 356.962 0.261706 356.962L2.14785 356.963C2.29238 356.963 2.40955 356.846 2.40955 356.702L2.41077 352.591C2.41077 352.446 2.2936 352.329 2.14906 352.329L0.262919 352.328C0.118383 352.328 0.00121346 352.445 0.00121346 352.589L0 356.7Z" fill="#005BA1" fill-rule="evenodd" transform="matrix(1.0431 0 0 1 372.035 -175.656)"/><path d="M0 356.7C-1.07329e-14 356.845 0.11717 356.962 0.261706 356.962L2.14785 356.963C2.29238 356.963 2.40955 356.846 2.40955 356.702L2.41077 347.765C2.41077 347.621 2.2936 347.503 2.14906 347.503L0.262919 347.506C0.118383 347.506 0.00121346 347.624 0.00121346 347.768L0 356.7Z" fill="#005BA1" fill-rule="evenodd" transform="matrix(1.0431 0 0 1 376.042 -175.656)"/><path d="M0 356.7C-1.07329e-14 356.845 0.11717 356.962 0.261706 356.962L2.14785 356.963C2.29238 356.963 2.40955 356.846 2.40955 356.702L2.41077 352.591C2.41077 352.446 2.2936 352.329 2.14906 352.329L0.262919 352.328C0.118383 352.328 0.00121346 352.445 0.00121346 352.589L0 356.7Z" fill="#5EA0EF" fill-rule="evenodd" transform="matrix(1.0431 0 0 1 364.021 -175.656)"/><path d="M0 266.56C3.50694 266.56 6.35051 267.797 6.35051 269.326L6.35051 354.197C6.35051 355.725 3.50694 356.963 0 356.963" stroke="#A5A5A5" stroke-width="0.910105" stroke-miterlimit="3" fill="none" fill-rule="evenodd" transform="matrix(1.0431 0 0 1 120.224 -131.442)"/><path d="M91.9549 337.817C93.9655 337.817 95.5954 339.447 95.5954 341.457L95.5954 353.323C95.5954 355.333 93.9655 356.963 91.9549 356.963L3.64042 356.963C1.62987 356.963 2.70027e-06 355.333 2.70027e-06 353.323L2.70027e-06 341.457C2.70027e-06 339.447 1.62987 337.817 3.64042 337.817Z" stroke="#E6E6E6" stroke-width="0.910105" stroke-linecap="round" stroke-linejoin="round" stroke-miterlimit="3" fill="#FFFFFF" fill-rule="evenodd" transform="matrix(1.0431 0 0 1 20.5254 -135.275)"/><text font-family="Segoe UI Semibold,Segoe UI Semibold_MSFontService,sans-serif" font-weight="600" font-size="18" transform="matrix(0.421926 0 0 0.404491 42.7271 214)">Custom Sources</text><path d="M91.9549 340.513C93.9655 340.513 95.5954 342.142 95.5954 344.153L95.5954 353.323C95.5954 355.333 93.9655 356.963 91.9549 356.963L3.64042 356.963C1.62987 356.963 2.70027e-06 355.333 2.70027e-06 353.323L2.70027e-06 344.153C2.70027e-06 342.142 1.62987 340.513 3.64042 340.513Z" stroke="#D8D8D8" stroke-width="0.910105" stroke-linecap="round" stroke-linejoin="round" stroke-miterlimit="3" fill="#E6E6E6" fill-rule="evenodd" transform="matrix(1.0431 0 0 1 20.5381 -201.561)"/><text font-family="Segoe UI Semibold,Segoe UI Semibold_MSFontService,sans-serif" font-weight="600" font-size="18" transform="matrix(0.421926 0 0 0.404491 50.672 149)">Application</text><path d="M91.9549 340.513C93.9655 340.513 95.5954 342.142 95.5954 344.153L95.5954 353.323C95.5954 355.333 93.9655 356.963 91.9549 356.963L3.64042 356.963C1.62987 356.963 2.70027e-06 355.333 2.70027e-06 353.323L2.70027e-06 344.153C2.70027e-06 342.142 1.62987 340.513 3.64042 340.513Z" stroke="#D8D8D8" stroke-width="0.910105" stroke-linecap="round" stroke-linejoin="round" stroke-miterlimit="3" fill="#E6E6E6" fill-rule="evenodd" transform="matrix(1.0431 0 0 1 20.5254 -180.364)"/><text font-family="Segoe UI Semibold,Segoe UI Semibold_MSFontService,sans-serif" font-weight="600" font-size="18" transform="matrix(0.421926 0 0 0.404491 46.938 171)">Infrastructure</text><path d="M91.9549 340.513C93.9655 340.513 95.5954 342.142 95.5954 344.153L95.5954 353.323C95.5954 355.333 93.9655 356.963 91.9549 356.963L3.64042 356.963C1.62987 356.963 2.70027e-06 355.333 2.70027e-06 353.323L2.70027e-06 344.153C2.70027e-06 342.142 1.62987 340.513 3.64042 340.513Z" stroke="#D8D8D8" stroke-width="0.910105" stroke-linecap="round" stroke-linejoin="round" stroke-miterlimit="3" fill="#E6E6E6" fill-rule="evenodd" transform="matrix(1.0431 0 0 1 20.5254 -159.167)"/><text font-family="Segoe UI Semibold,Segoe UI Semibold_MSFontService,sans-serif" font-weight="600" font-size="18" transform="matrix(0.421926 0 0 0.404491 44.4781 192)">Azure Platform</text><path d="M2.85166 353.177C2.858 353.331 2.74179 353.462 2.58874 353.473L0.295278 353.477C0.141905 353.483 0.0110357 353.366-0.000808974 353.214L0 351.499C-0.00633655 351.345 0.109872 351.214 0.262919 351.202L2.55638 351.203C2.70976 351.197 2.84063 351.313 2.85247 351.466L2.85166 353.177ZM6.92084 354.912C6.92719 355.066 6.81098 355.197 6.65792 355.209L4.36446 355.208C4.21107 355.214 4.08022 355.098 4.06837 354.945L4.06918 353.246C4.06283 353.093 4.17904 352.962 4.3321 352.95L6.62556 352.947C6.77894 352.94 6.9098 353.057 6.92165 353.21L6.92084 354.912ZM2.85166 356.668C2.858 356.821 2.74179 356.952 2.58874 356.964L0.295278 356.963C0.141905 356.97 0.0110357 356.853-0.000808974 356.7L0 354.989C-0.00633655 354.836 0.109872 354.705 0.262919 354.693L2.55638 354.694C2.70976 354.688 2.84063 354.804 2.85247 354.957L2.85166 356.668Z" fill="#76BC2D" fill-rule="evenodd" transform="matrix(1.0431 0 0 1 370.776 -55.0907)"/><path d="M2.90829 356.676C2.91463 356.824 2.80306 356.949 2.65589 356.961L0.295278 356.963C0.145601 356.97 0.0162548 356.86-0.000808974 356.711L0 354.933C0.00512098 354.788 0.118279 354.67 0.262919 354.658L2.55638 354.658C2.79908 354.658 2.90829 354.779 2.90829 354.957L2.90829 356.676Z" fill="#86D633" fill-rule="evenodd" transform="matrix(1.0431 0 0 1 366.473 -60.3232)"/><path d="M2.90829 353.169C2.92079 353.32 2.80857 353.453 2.65762 353.465 2.65704 353.465 2.65647 353.465 2.65589 353.465L0.295278 353.464C0.137906 353.47 0.00534288 353.348-0.000808974 353.191-0.00109915 353.183-0.00109915 353.176-0.000808974 353.168L0 351.434C-0.000454668 351.285 0.114174 351.16 0.262919 351.149L2.55638 351.151C2.79908 351.151 2.90829 351.272 2.90829 351.434L2.90829 353.169ZM2.90829 356.668C2.92079 356.819 2.80857 356.952 2.65762 356.964 2.65704 356.964 2.65647 356.964 2.65589 356.964L0.295278 356.963C0.141905 356.97 0.0110357 356.853-0.000808974 356.7L0 354.925C-0.00615575 354.773 0.111536 354.646 0.262872 354.639 0.262888 354.639 0.262903 354.639 0.262919 354.639L2.55638 354.637C2.79908 354.637 2.90829 354.747 2.90829 354.925L2.90829 356.668Z" fill="#76BC2D" fill-rule="evenodd" transform="matrix(1.0431 0 0 1 366.473 -53.3465)"/><path d="M0.626961 352.696 2.03863 352.696 2.03863 356.644C2.03863 356.819 1.89629 356.962 1.7207 356.962L0.319548 356.963C0.14396 356.963 0.00161797 356.821 0.00161797 356.645L0 353.355C-0.018768 353.01 0.245579 352.716 0.590435 352.697 0.602598 352.696 0.614782 352.696 0.626961 352.696Z" fill="#999999" fill-rule="evenodd" transform="matrix(1.0431 0 0 1 361.931 -62.1883)"/><path d="M0.626961 352.696 2.03863 352.696 2.03863 356.644C2.03863 356.819 1.89629 356.962 1.7207 356.962L0.319548 356.963C0.14396 356.963 0.00161797 356.821 0.00161797 356.645L0 353.355C-0.018768 353.01 0.245579 352.716 0.590435 352.697 0.602598 352.696 0.614782 352.696 0.626961 352.696Z" fill="#999999" fill-rule="evenodd" fill-opacity="0.5" transform="matrix(1.0431 0 0 1 361.931 -62.1883)"/><path d="M0.0121347 352.728 1.42785 352.728C1.7729 352.729 2.05166 353.01 2.05077 353.355L2.05077 356.644C2.05077 356.819 1.90843 356.962 1.73284 356.962L0.319548 356.963C0.14396 356.963 0.00161797 356.821 0.00161797 356.645L0 352.728 0.0121347 352.728Z" fill="#999999" fill-rule="evenodd" transform="matrix(1.0431 0 0 1 379.243 -62.2206)"/><path d="M0.0121347 352.728 1.42785 352.728C1.7729 352.729 2.05166 353.01 2.05077 353.355L2.05077 356.644C2.05077 356.819 1.90843 356.962 1.73284 356.962L0.319548 356.963C0.14396 356.963 0.00161797 356.821 0.00161797 356.645L0 352.728 0.0121347 352.728Z" fill="#999999" fill-rule="evenodd" fill-opacity="0.5" transform="matrix(1.0431 0 0 1 379.243 -62.2206)"/><path d="M18.647 355.592 18.647 356.963 0 356.963 0 355.592C-0.000894734 355.247 0.278354 354.966 0.623721 354.965 0.624801 354.965 0.625881 354.965 0.626961 354.965L18.0322 354.965C18.3741 354.971 18.648 355.25 18.647 355.592Z" fill="#949494" fill-rule="evenodd" transform="matrix(1.0431 0 0 1 361.931 -64.4587)"/><path d="M0.319548 352.696 1.73122 352.696C1.90681 352.696 2.04915 352.838 2.04915 353.014L2.05077 356.963 0.626961 356.963C0.281595 356.964 0.000894718 356.685-1.92876e-08 356.34-2.81733e-06 356.338-2.81733e-06 356.337-1.92876e-08 356.336L0 352.959C0.0270074 352.805 0.161758 352.693 0.31793 352.696Z" fill="#999999" fill-rule="evenodd" transform="matrix(1.0431 0 0 1 361.931 -49.8473)"/><path d="M0.319548 352.696 1.73122 352.696C1.90681 352.696 2.04915 352.838 2.04915 353.014L2.05077 356.963 0.626961 356.963C0.281595 356.964 0.000894718 356.685-1.92876e-08 356.34-2.81733e-06 356.338-2.81733e-06 356.337-1.92876e-08 356.336L0 352.959C0.0270074 352.805 0.161758 352.693 0.31793 352.696Z" fill="#999999" fill-rule="evenodd" fill-opacity="0.5" transform="matrix(1.0431 0 0 1 361.931 -49.8473)"/><path d="M0.307413 352.728 1.72313 352.728C1.89872 352.728 2.04106 352.871 2.04106 353.046L2.03863 356.336C2.03953 356.681 1.76077 356.962 1.41572 356.963L0 356.963 0 352.991C0.0263144 352.841 0.155213 352.731 0.307413 352.728Z" fill="#999999" fill-rule="evenodd" transform="matrix(1.0431 0 0 1 379.255 -49.88)"/><path d="M0.307413 352.728 1.72313 352.728C1.89872 352.728 2.04106 352.871 2.04106 353.046L2.03863 356.336C2.03953 356.681 1.76077 356.962 1.41572 356.963L0 356.963 0 352.991C0.0263144 352.841 0.155213 352.731 0.307413 352.728Z" fill="#999999" fill-rule="evenodd" fill-opacity="0.5" transform="matrix(1.0431 0 0 1 379.255 -49.88)"/><path d="M0 356.336 0 354.965 18.647 354.965 18.647 356.336C18.6479 356.681 18.3692 356.962 18.0241 356.963L0.626961 356.963C0.281595 356.964 0.000894718 356.685-1.92876e-08 356.34-2.81733e-06 356.338-2.81733e-06 356.337-1.92876e-08 356.336Z" fill="#949494" fill-rule="evenodd" transform="matrix(1.0431 0 0 1 361.931 -49.8473)"/><text fill="#0C0C0C" font-family="Segoe UI Semibold,Segoe UI Semibold_MSFontService,sans-serif" font-weight="600" font-size="18" transform="matrix(0.421926 0 0 0.404491 352.181 318)">Event Hubs</text><path d="M17.5751 342.907C17.4768 339.486 14.6381 336.785 11.2165 336.856 8.49132 336.828 6.04475 338.522 5.11277 341.083 2.19997 341.485 0.0231781 343.963 5.24625e-07 346.904 0.119528 350.192 2.86626 352.772 6.15635 352.684 6.33546 352.696 6.51522 352.696 6.69432 352.684L8.23544 352.684C8.14163 352.455 8.09354 352.21 8.09386 351.964 8.099 351.634 8.18807 351.311 8.35274 351.025L6.15635 351.025C3.77881 351.108 1.76966 349.278 1.6301 346.904 1.65121 344.764 3.24917 342.969 5.37164 342.701L6.34646 342.547 6.67005 341.609C7.37468 339.712 9.19392 338.463 11.2165 338.486 13.7377 338.428 15.841 340.4 15.945 342.919L15.945 344.335 17.3446 344.525C18.9676 344.733 20.199 346.089 20.2488 347.725 20.187 349.54 18.7004 350.982 16.8835 350.989L15.3019 350.989C14.844 348.608 12.755 346.891 10.3307 346.904 9.88054 346.843 9.46675 347.159 9.40648 347.609 9.34617 348.06 9.6622 348.473 10.1123 348.534 10.1848 348.543 10.2582 348.543 10.3307 348.534 12.2083 348.638 13.6457 350.245 13.5413 352.123 13.4449 353.854 12.0624 355.237 10.3307 355.333 9.88054 355.273 9.46675 355.589 9.40648 356.039 9.34617 356.489 9.6622 356.903 10.1123 356.963 10.1848 356.973 10.2582 356.973 10.3307 356.963 12.8208 356.958 14.9335 355.134 15.3019 352.672L16.6529 352.672C16.7373 352.685 16.8233 352.685 16.9077 352.672 19.6178 352.624 21.8015 350.435 21.8425 347.725 21.7965 345.289 19.9878 343.247 17.5751 342.907Z" fill="url(#fill26)" fill-rule="evenodd" transform="matrix(1.0431 0 0 1 485.679 -46.6939)"/><path d="M0 354.985C0.000446441 356.077 0.885746 356.963 1.97796 356.963L2.03054 356.963C3.12276 356.963 4.00806 356.077 4.0085 354.985L4.0085 354.933C4.00806 353.841 3.12275 352.955 2.03054 352.955L1.97796 352.955C0.885746 352.955 0.000446384 353.841-5.40052e-08 354.933L0 354.985Z" fill="url(#fill27)" fill-rule="evenodd" transform="matrix(1.0431 0 0 1 494.122 -49.7259)"/><text fill="#0C0C0C" font-family="Segoe UI Semibold,Segoe UI Semibold_MSFontService,sans-serif" font-weight="600" font-size="18" transform="matrix(0.421926 0 0 0.404491 470.408 318)">Import <tspan font-size="18" x="63" y="0">/ </tspan><tspan font-size="18" x="75" y="0">Export </tspan><tspan fill="#000000" font-size="18" x="45.39" y="22.2502">APIs</tspan></text><path d="M0 356.963 51.8112 356.963" stroke="#A5A5A5" stroke-width="0.808982" stroke-linecap="round" stroke-linejoin="round" stroke-miterlimit="3" fill="none" fill-rule="evenodd" transform="matrix(1.0431 0 0 1 126.851 -176.643)"/><path d="M3.6566 1.8283 0 0 3.6566-1.8283" stroke="#A5A5A5" stroke-width="0.808982" stroke-linecap="round" stroke-linejoin="round" stroke-miterlimit="3" fill="#A5A5A5" fill-rule="evenodd" transform="matrix(-1.0431 0 0 -1 180.895 180.32)"/><path d="M0 356.963 27.3476 356.963" stroke="#A5A5A5" stroke-width="0.808982" stroke-linecap="round" stroke-linejoin="round" stroke-miterlimit="3" fill="none" fill-rule="evenodd" transform="matrix(1.0431 0 0 1 287.221 -176.643)"/><path d="M3.6566 1.8283 0 0 3.6566-1.8283" stroke="#A5A5A5" stroke-width="0.808982" stroke-linecap="round" stroke-linejoin="round" stroke-miterlimit="3" fill="#A5A5A5" fill-rule="evenodd" transform="matrix(-1.0431 0 0 -1 315.748 180.32)"/><path d="M377.499 28.4155C380.515 28.4155 382.96 30.8603 382.96 33.8761L382.96 351.503C382.96 354.518 380.515 356.963 377.499 356.963L5.46064 356.963C2.44481 356.963 7.71505e-06 354.518 7.71505e-06 351.503L7.71505e-06 33.8761C7.71505e-06 30.8603 2.44481 28.4155 5.46064 28.4155Z" stroke="#0078D7" stroke-width="0.202245" stroke-linecap="round" stroke-linejoin="round" stroke-miterlimit="3" fill="none" fill-rule="evenodd" transform="matrix(1.0431 0 0 1 157.412 -14.6444)"/><text font-family="Segoe UI Semibold,Segoe UI Semibold_MSFontService,sans-serif" font-weight="600" font-size="18" transform="matrix(0.421926 0 0 0.404491 487.518 138)">Grafana</text><path d="M18.283 345.844C18.2506 345.512 18.194 345.128 18.0848 344.699 17.9602 344.226 17.7881 343.766 17.5711 343.328 17.3284 342.846 17.0169 342.349 16.6124 341.86 16.4506 341.669 16.2767 341.483 16.0906 341.301 16.3697 340.189 15.7509 339.222 15.7509 339.222 14.683 339.158 13.9994 339.558 13.7486 339.74 13.7042 339.724 13.6677 339.7 13.6233 339.683 13.4412 339.611 13.2552 339.542 13.057 339.481 12.8669 339.42 12.6687 339.364 12.4664 339.315 12.2642 339.267 12.0619 339.23 11.8516 339.194 11.8152 339.19 11.7828 339.186 11.7424 339.178 11.2772 337.689 9.93834 337.062 9.93834 337.062 8.44173 338.013 8.16263 339.34 8.16263 339.34 8.16263 339.34 8.15858 339.364 8.14645 339.416 8.06555 339.437 7.98061 339.465 7.89971 339.485 7.78645 339.518 7.66915 339.562 7.55994 339.607 7.44668 339.651 7.33342 339.696 7.22016 339.744 6.99365 339.841 6.77118 339.95 6.55275 340.072 6.33837 340.193 6.12804 340.327 5.92579 340.46L5.87321 340.44C3.79817 339.651 1.96178 340.598 1.96178 340.598 1.79189 342.802 2.79099 344.189 2.98919 344.44 2.9366 344.578 2.89615 344.715 2.85166 344.853 2.69795 345.35 2.58065 345.86 2.51189 346.394 2.49975 346.471 2.48762 346.548 2.48357 346.624 0.566287 347.571 0 349.508 0 349.508 1.59369 351.345 3.4584 351.458 3.4584 351.458L3.46649 351.454C3.70109 351.875 3.97615 352.275 4.28356 352.655 4.413 352.813 4.54648 352.963 4.68805 353.108 4.10558 354.775 4.76895 356.158 4.76895 356.158 6.54466 356.223 7.71364 355.378 7.96038 355.188 8.13431 355.248 8.31633 355.301 8.49835 355.345 9.04442 355.487 9.60666 355.572 10.1649 355.592 10.3024 355.6 10.444 355.604 10.5815 355.6L10.7797 355.6 10.8646 355.592 10.8646 355.6C11.706 356.793 13.1743 356.963 13.1743 356.963 14.2219 355.863 14.2826 354.767 14.2826 354.528L14.2826 354.431C14.501 354.277 14.7073 354.112 14.9055 353.934 15.3221 353.553 15.6902 353.121 15.9976 352.655L16.0785 352.522C17.2637 352.587 18.101 351.79 18.101 351.79 17.9028 350.556 17.203 349.953 17.0533 349.836 16.9077 349.723 17.0493 349.832 17.0372 349.824 17.0291 349.82 17.0291 349.816 17.0291 349.816 17.0211 349.808 17.0114 349.803 17.0008 349.8 17.0048 349.723 17.0129 349.65 17.0169 349.573 17.0291 349.44 17.0291 349.306 17.0291 349.173L17.0291 348.966 17.021 348.882 17.0169 348.772C17.0169 348.736 17.0129 348.704 17.0048 348.667 17.0008 348.635 17.0008 348.598 16.9967 348.566L16.9846 348.461 16.9684 348.356C16.9441 348.218 16.9239 348.089 16.8915 347.951 16.7661 347.417 16.5558 346.916 16.2888 346.459 16.0138 346.006 15.674 345.605 15.2857 345.265 14.9014 344.926 14.4686 344.651 14.0197 344.448 13.5626 344.246 13.0934 344.113 12.6201 344.052 12.3855 344.02 12.1469 344.007 11.9123 344.015L11.7383 344.015 11.6493 344.02C11.617 344.02 11.5846 344.024 11.5563 344.024 11.435 344.036 11.3136 344.052 11.2004 344.076 10.7271 344.161 10.2862 344.331 9.89385 344.57 9.50554 344.804 9.16576 345.095 8.89071 345.423 8.6197 345.751 8.40532 346.119 8.25566 346.499 8.11004 346.875 8.0251 347.272 8.00488 347.648 7.99679 347.741 7.99679 347.842 7.99679 347.935L7.99679 348.004 8.00488 348.081C8.00892 348.125 8.00892 348.174 8.01297 348.218 8.03319 348.412 8.06959 348.598 8.11813 348.772 8.2233 349.128 8.38914 349.452 8.59139 349.727 8.79363 350.002 9.04037 350.224 9.29925 350.406 9.55408 350.58 9.83317 350.71 10.1082 350.791 10.3833 350.872 10.6583 350.904 10.9132 350.904L11.0588 350.904C11.075 350.904 11.0911 350.904 11.1073 350.9 11.1356 350.9 11.1599 350.896 11.1882 350.896 11.1963 350.896 11.2044 350.896 11.2125 350.888L11.2368 350.884C11.2529 350.884 11.2732 350.88 11.2893 350.88 11.3217 350.872 11.35 350.868 11.3824 350.863 11.4147 350.855 11.443 350.851 11.4673 350.839 11.528 350.827 11.5846 350.807 11.6372 350.791 11.7464 350.75 11.8597 350.71 11.9527 350.657 12.0498 350.609 12.1388 350.548 12.2237 350.495 12.248 350.479 12.2763 350.463 12.2965 350.439 12.3855 350.37 12.4017 350.237 12.3289 350.148 12.2659 350.07 12.1566 350.05 12.07 350.099L12.0053 350.131C11.9284 350.172 11.8516 350.204 11.7707 350.233 11.6898 350.257 11.6008 350.281 11.5118 350.297 11.4673 350.301 11.4228 350.309 11.3743 350.313 11.3541 350.313 11.3298 350.317 11.3055 350.317L11.172 350.317C11.1437 350.317 11.1195 350.317 11.0911 350.313L11.0588 350.313C11.0466 350.313 11.0305 350.313 11.0183 350.309 10.99 350.301 10.9698 350.301 10.9415 350.297 10.7392 350.269 10.537 350.208 10.3428 350.123 10.1487 350.034 9.96261 349.913 9.79272 349.759 9.61936 349.604 9.47306 349.421 9.35992 349.217 9.24262 349.007 9.16172 348.78 9.12127 348.538 9.10509 348.416 9.09296 348.291 9.10105 348.17 9.10105 348.137 9.10509 348.105 9.10509 348.073L9.10509 348.028C9.10509 348.012 9.11318 347.996 9.11318 347.979 9.11723 347.911 9.12936 347.846 9.13745 347.781 9.23048 347.255 9.4934 346.738 9.90194 346.349 10.0031 346.252 10.1163 346.163 10.2296 346.082 10.3428 345.997 10.4723 345.929 10.6017 345.868 10.7352 345.807 10.8646 345.759 11.0062 345.718 11.1437 345.682 11.2893 345.658 11.435 345.642 11.5078 345.637 11.5765 345.633 11.6534 345.633L11.8233 345.633 11.8839 345.637C12.0457 345.65 12.1994 345.67 12.3532 345.71 12.6565 345.775 12.9599 345.888 13.239 346.042 13.7972 346.353 14.2745 346.839 14.5657 347.417 14.7154 347.708 14.8165 348.02 14.8691 348.344 14.8772 348.428 14.8893 348.509 14.8934 348.59L14.9014 348.651 14.9055 348.712 14.9055 348.95C14.9055 348.987 14.9014 349.051 14.9014 349.092 14.8934 349.177 14.8853 349.27 14.8731 349.359 14.861 349.448 14.8448 349.537 14.8286 349.622 14.8125 349.711 14.7922 349.8 14.768 349.881 14.7235 350.05 14.6709 350.22 14.6062 350.39 14.4727 350.718 14.2988 351.037 14.0884 351.329 13.6622 351.914 13.0924 352.379 12.4341 352.68 12.1064 352.829 11.7586 352.939 11.4026 352.995 11.2287 353.028 11.0466 353.044 10.8646 353.048L10.5896 353.048C10.4925 353.048 10.3995 353.044 10.3024 353.032 9.91812 353.003 9.5379 352.935 9.16576 352.829 8.79768 352.724 8.44173 352.579 8.10195 352.401 7.42645 352.041 6.81972 351.547 6.34646 350.948 5.87899 350.355 5.53263 349.677 5.32715 348.95 5.23007 348.586 5.16939 348.218 5.14108 347.846L5.13703 347.773 5.13703 347.288C5.14108 347.106 5.15726 346.916 5.18153 346.73 5.20175 346.544 5.23411 346.349 5.27456 346.163 5.31097 345.977 5.35546 345.791 5.41209 345.605 5.51321 345.237 5.64669 344.881 5.8004 344.545 6.11186 343.878 6.51635 343.279 7.00578 342.802 7.12713 342.681 7.25252 342.571 7.386 342.462 7.51544 342.357 7.65297 342.26 7.79454 342.167 7.93207 342.074 8.08173 341.993 8.22735 341.916 8.30015 341.876 8.37701 341.839 8.45386 341.807L8.56712 341.754 8.68442 341.706C8.83813 341.641 8.99588 341.584 9.16172 341.536 9.19812 341.524 9.24262 341.516 9.28307 341.5 9.31947 341.487 9.36397 341.475 9.40037 341.463 9.48531 341.443 9.56621 341.423 9.64711 341.406 9.68756 341.394 9.73205 341.39 9.77655 341.378 9.81699 341.366 9.85744 341.362 9.90194 341.35 9.94643 341.346 9.98284 341.334 10.0273 341.33L10.088 341.318 10.1527 341.305C10.1972 341.301 10.2336 341.293 10.2781 341.289 10.3267 341.285 10.3711 341.277 10.4197 341.273 10.4601 341.269 10.5249 341.261 10.5653 341.257 10.5896 341.253 10.626 341.253 10.6502 341.245L10.7109 341.241 10.7392 341.237 10.7716 341.237C10.8201 341.229 10.8646 341.229 10.9132 341.225L10.986 341.22 11.0426 341.22C11.079 341.22 11.1235 341.212 11.1599 341.212 11.3217 341.208 11.4835 341.208 11.6453 341.212 11.9608 341.225 12.2763 341.261 12.5756 341.318 13.1864 341.431 13.7567 341.625 14.2745 341.884 14.7963 342.135 15.2574 342.446 15.6619 342.786 15.6902 342.81 15.7104 342.83 15.7387 342.851 15.763 342.875 15.7873 342.895 15.8116 342.919L15.9531 343.049C16.0017 343.093 16.0462 343.138 16.0906 343.182 16.1351 343.227 16.1796 343.267 16.2201 343.32 16.39 343.498 16.5518 343.68 16.6933 343.866 16.9765 344.234 17.207 344.606 17.3891 344.958L17.4214 345.023 17.4538 345.087C17.4781 345.132 17.4983 345.176 17.5145 345.221 17.5387 345.265 17.5549 345.302 17.5751 345.346 17.5913 345.391 17.6156 345.427 17.6318 345.472 17.6965 345.637 17.7612 345.795 17.8097 345.945 17.8947 346.184 17.9554 346.398 18.0039 346.584 18.0201 346.661 18.0929 346.713 18.1697 346.701 18.2506 346.693 18.3113 346.629 18.3113 346.548 18.3153 346.349 18.3113 346.115 18.283 345.844Z" fill="url(#fill28)" fill-rule="evenodd" transform="matrix(1.0431 0 0 1 491.491 -228.641)"/><path d="M6.77927 338.065 6.77927 356.142C6.77927 356.595 6.41118 356.963 5.95411 356.963L0.821117 356.963C0.368087 356.963 0 356.595 0 356.142L0 338.065C0 337.612 0.368087 337.244 0.821117 337.244L5.95411 337.244C6.41118 337.244 6.77927 337.612 6.77927 338.065Z" fill="url(#fill29)" fill-rule="evenodd" transform="matrix(1.0431 0 0 1 456.022 -228.822)"/><path d="M6.77927 342.996 6.77927 356.963 0 356.963 0 342.996C0 342.543 0.368087 342.175 0.821117 342.175L5.95815 342.175C6.41118 342.175 6.77927 342.543 6.77927 342.996Z" fill="url(#fill30)" fill-rule="evenodd" transform="matrix(1.0431 0 0 1 451.843 -228.822)"/><path d="M0 347.927 0 356.142C0 356.595 0.368087 356.963 0.821117 356.963L6.77927 356.963 6.77927 347.927C6.77927 347.47 6.41118 347.106 5.95815 347.106L0.821117 347.106C0.368087 347.106 0 347.47 0 347.927Z" fill="url(#fill31)" fill-rule="evenodd" transform="matrix(1.0431 0 0 1 447.665 -228.822)"/><text font-family="Segoe UI Semibold,Segoe UI Semibold_MSFontService,sans-serif" font-weight="600" font-size="18" transform="matrix(0.421926 0 0 0.404491 441.195 138)">PowerBI</text><path d="M5.30692 351.167 5.30692 348.938 4.19053 348.938 4.19053 351.167C4.19053 351.567 3.83457 351.923 3.25615 352.101L1.73931 352.417C0.711904 352.728 -3.5926e-16 353.529 -3.5926e-16 354.423L-3.5926e-16 356.963 1.11639 356.963 1.11639 354.423C1.11639 354.019 1.47235 353.663 2.05077 353.485L3.56761 353.129C4.59097 352.862 5.30692 352.057 5.30692 351.167Z" fill="#59B4D9" fill-rule="evenodd" transform="matrix(1.0431 0 0 1 428.683 -54.0046)"/><path d="M3.83457 356.073 3.83457 354.019C3.83457 353.529 3.43413 353.129 2.94469 353.129L0.88988 353.129C0.400446 353.129 0 353.529 0 354.019L0 356.073C0 356.563 0.400446 356.963 0.88988 356.963L2.94469 356.963C3.43413 356.963 3.83457 356.563 3.83457 356.073Z" fill="#57A300" fill-rule="evenodd" transform="matrix(1.0431 0 0 1 427.241 -51.9534)"/><path d="M0 351.078 0 348.849 1.11639 348.849 1.11639 351.078C1.11639 351.478 1.47235 351.834 2.05077 352.012L3.92356 352.417C4.95097 352.728 5.66287 353.529 5.66287 354.423L5.66287 356.963 4.54648 356.963 4.54648 354.423C4.54648 354.019 4.19053 353.663 3.6121 353.485L1.73931 353.084C0.711904 352.773 0 351.968 0 351.078Z" fill="#59B4D9" fill-rule="evenodd" transform="matrix(1.0431 0 0 1 432.916 -53.9152)"/><path d="M0 356.073 0 354.019C0 353.529 0.400446 353.129 0.88988 353.129L2.94469 353.129C3.43413 353.129 3.83457 353.529 3.83457 354.019L3.83457 356.073C3.83457 356.563 3.43413 356.963 2.94469 356.963L0.88988 356.963C0.400446 356.963 0 356.563 0 356.073Z" fill="#57A300" fill-rule="evenodd" transform="matrix(1.0431 0 0 1 436.264 -51.8641)"/><path d="M0 354.823 1.24866 354.823 1.24866 356.963 0 356.963Z" fill="#59B4D9" fill-rule="evenodd" transform="matrix(1.0431 0 0 1 432.916 -59.8904)"/><path d="M2.9002 354.063 2.9002 355.713 1.24988 355.713 1.24988 354.063 2.9002 354.063ZM3.25615 352.817 0.88988 352.817C0.400446 352.817 0 353.218 0 353.707L0 356.073C0 356.563 0.400446 356.963 0.88988 356.963L3.25615 356.963C3.74559 356.963 4.14603 356.563 4.14603 356.073L4.14603 353.707C4.14603 353.218 3.74559 352.817 3.25615 352.817Z" fill="#0072C6" fill-rule="evenodd" transform="matrix(1.0431 0 0 1 431.427 -61.1835)"/><path d="M3.52312 356.963C2.5847 356.963 1.91729 356.785 1.51684 356.474 1.11639 356.118 0.934374 355.535 0.934374 354.69L0.934374 350.05C0.934374 349.294 0.622916 348.894 3.5926e-16 348.894L3.5926e-16 347.733C0.622916 347.733 0.934374 347.332 0.934374 346.527L0.934374 341.981C0.934374 341.135 1.11639 340.509 1.51684 340.153 1.91729 339.797 2.5847 339.663 3.52312 339.663L3.52312 340.82C2.85571 340.82 2.49571 341.18 2.49571 341.936L2.49571 346.394C2.49571 347.421 2.18425 348.044 1.51684 348.311 2.13976 348.582 2.49571 349.205 2.49571 350.228L2.49571 354.646C2.49571 355.046 2.5847 355.357 2.71818 355.535 2.9002 355.713 3.12267 355.802 3.47862 355.802L3.52312 356.963C3.47862 356.963 3.52312 356.963 3.52312 356.963ZM18.7724 339.663C19.7068 339.663 20.3783 339.841 20.7787 340.153 21.1791 340.509 21.3571 341.091 21.3571 341.936L21.3571 346.576C21.3571 347.332 21.6686 347.733 22.2955 347.733L22.2955 348.894C21.6686 348.894 21.3571 349.294 21.3571 350.095L21.3571 354.601C21.3571 355.446 21.1791 356.073 20.7787 356.429 20.3783 356.785 19.7068 356.963 18.7724 356.963L18.7724 355.802C19.4398 355.802 19.7958 355.446 19.7958 354.69L19.7958 350.228C19.7958 349.205 20.1113 348.582 20.7787 348.311 20.1558 348.044 19.7958 347.421 19.7958 346.394L19.7958 341.981C19.7958 341.58 19.7068 341.269 19.5733 341.091 19.3953 340.913 19.1729 340.82 18.8169 340.82L18.7724 339.663Z" fill="#59B4D9" fill-rule="evenodd" transform="matrix(1.0431 0 0 1 422.125 -49.501)"/><text font-family="Segoe UI Semibold,Segoe UI Semibold_MSFontService,sans-serif" font-weight="600" font-size="18" transform="matrix(0.421926 0 0 0.404491 414.758 318)">Logic Apps<tspan font-size="24" x="-504.161" y="-165.64">Data Platform</tspan><tspan font-size="18" x="165.799" y="-309.03">Change </tspan><tspan font-size="18" x="163.749" y="-289.252">Analysis</tspan></text><path d="M1.22156 356.963 0 355.879 5.97029 349.197 11.0507 354.427 15.8439 349.347 17.0331 350.463 11.0628 356.789 6.02691 351.583 1.22156 356.963Z" fill="#76BC2D" fill-rule="evenodd" transform="matrix(1.0431 0 0 1 488.802 -175.008)"/><path d="M3.9179 355.004C3.9179 356.086 3.04085 356.963 1.95895 356.963 0.877052 356.963-2.62312e-08 356.086-2.62312e-08 355.004-2.62312e-08 353.922 0.877052 353.045 1.95895 353.045 3.04085 353.045 3.9179 353.922 3.9179 355.004Z" fill="url(#fill32)" fill-rule="evenodd" transform="matrix(1.0431 0 0 1 493.011 -179.609)"/><path d="M3.9179 355.004C3.9179 356.086 3.04085 356.963 1.95895 356.963 0.877052 356.963-2.62312e-08 356.086-2.62312e-08 355.004-2.62312e-08 353.922 0.877052 353.045 1.95895 353.045 3.04085 353.045 3.9179 353.922 3.9179 355.004Z" fill="url(#fill33)" fill-rule="evenodd" transform="matrix(1.0431 0 0 1 498.288 -174.563)"/><path d="M3.9179 355.004C3.9179 356.086 3.04085 356.963 1.95895 356.963 0.877052 356.963-2.62312e-08 356.086-2.62312e-08 355.004-2.62312e-08 353.922 0.877052 353.045 1.95895 353.045 3.04085 353.045 3.9179 353.922 3.9179 355.004Z" fill="url(#fill34)" fill-rule="evenodd" transform="matrix(1.0431 0 0 1 503.91 -180.278)"/><path d="M3.9179 355.004C3.9179 356.086 3.04085 356.963 1.95895 356.963 0.877052 356.963-2.62312e-08 356.086-2.62312e-08 355.004-2.62312e-08 353.922 0.877052 353.045 1.95895 353.045 3.04085 353.045 3.9179 353.922 3.9179 355.004Z" fill="url(#fill35)" fill-rule="evenodd" transform="matrix(1.0431 0 0 1 487.567 -173.913)"/><path d="M8.91498 353.25 5.25029 356.963 1.55325 353.25C-0.475091 351.276-0.520349 348.032 1.45212 346.002L1.55325 345.9C3.54347 343.867 6.80483 343.833 8.83772 345.823 8.83784 345.823 8.83801 345.824 8.83813 345.824L8.91498 345.9C10.9445 347.895 10.9728 351.157 8.9782 353.187 8.97735 353.188 8.9765 353.189 8.97565 353.189L8.91498 353.25Z" fill="#0078D4" fill-rule="evenodd" transform="matrix(1.0431 0 0 1 494.709 -180.794)"/><path d="M1.05168 352.773C0.807356 353.643 0.92861 354.575 1.3874 355.353 1.5496 355.626 1.75135 355.872 1.98605 356.086 2.21185 356.3 2.46642 356.483 2.74245 356.628 3.02175 356.763 3.31651 356.863 3.62019 356.927 3.93385 356.975 4.25306 356.975 4.5667 356.927L4.4858 356.029C4.4742 355.936 4.39803 355.865 4.305 355.861 4.14458 355.878 3.98276 355.877 3.82244 355.859 3.61952 355.813 3.42266 355.744 3.23593 355.653 3.04723 355.558 2.87293 355.436 2.71818 355.293 2.55696 355.147 2.41916 354.978 2.30964 354.791 2.1556 354.543 2.05759 354.264 2.02245 353.974 1.96928 353.688 1.96928 353.394 2.02245 353.108L2.33391 353.626C2.40611 353.69 2.51411 353.69 2.58631 353.626L3.00941 353.517C3.09155 353.461 3.1175 353.352 3.06928 353.265L2.03054 351.571C1.99545 351.479 1.89513 351.429 1.79998 351.456L0.0485389 352.494C-0.0148277 352.566-0.0148277 352.674 0.0485389 352.746L0.262919 353.117C0.315258 353.203 0.425431 353.234 0.515321 353.188L1.05168 352.773ZM4.68805 351.486C4.89422 351.523 5.09347 351.591 5.27861 351.689 5.66348 351.876 5.98432 352.173 6.20085 352.542 6.35257 352.796 6.45038 353.078 6.48803 353.371 6.54232 353.661 6.54232 353.959 6.48803 354.249L6.18871 353.731C6.13819 353.644 6.02845 353.61 5.93752 353.655L5.56579 353.885C5.47709 353.931 5.44198 354.039 5.48732 354.128L5.4849 354.14 6.53253 355.879C6.5786 355.967 6.68632 356.001 6.77441 355.956L6.78331 355.956 8.52262 354.912C8.59171 354.842 8.59171 354.73 8.52262 354.66L8.30824 354.29C8.23564 354.227 8.12845 354.227 8.05584 354.29L7.45477 354.65C7.5768 354.218 7.60847 353.767 7.5478 353.323 7.49882 352.875 7.35247 352.443 7.11904 352.057 6.96036 351.78 6.76131 351.53 6.52848 351.312 6.29538 351.105 6.03719 350.927 5.75995 350.783 5.4836 350.64 5.18788 350.54 4.88221 350.483 4.63947 350.416 4.38962 350.378 4.13794 350.37 4.03638 350.382 3.96226 350.472 3.96967 350.574L3.9721 351.28C3.98417 351.372 4.06008 351.443 4.15291 351.448 4.33218 351.438 4.51206 351.451 4.68805 351.486Z" fill="#FFFFFF" fill-rule="evenodd" transform="matrix(1.0431 0 0 1 495.796 -185.01)"/><path d="M0 354.997C0.00111478 356.083 0.880593 356.962 1.96583 356.963L31.9871 356.963C33.074 356.964 33.9559 356.084 33.957 354.997L33.957 326.133C33.9559 325.046 33.074 324.166 31.9871 324.167L1.96583 324.167C0.880593 324.168 0.00111483 325.048 5.40052e-08 326.133L0 354.997Z" stroke="#D8D8D8" stroke-width="0.910105" stroke-linecap="round" stroke-linejoin="round" stroke-miterlimit="3" fill="#E6E6E6" fill-rule="evenodd" transform="matrix(1.0431 0 0 1 195.054 -180)"/><text font-family="Segoe UI Semibold,Segoe UI Semibold_MSFontService,sans-serif" font-weight="600" font-size="18" transform="matrix(0.421926 0 0 0.404491 200.045 152)">Metrics</text><path d="M6.52444 344.359C2.93256 344.351 0.0283144 343.283 0.0323593 341.977L0 354.569C0 355.867 2.85571 356.927 6.40309 356.955L6.49208 356.955C10.0799 356.963 12.9922 355.912 12.9963 354.605L13.0287 342.009C13.0246 343.32 10.1123 344.371 6.52444 344.359Z" fill="url(#fill36)" fill-rule="evenodd" transform="matrix(1.0431 0 0 1 206.31 -184.531)"/><path d="M13.0003 354.605C13.0003 355.912 10.084 356.963 6.49612 356.955 2.90829 356.947 1.43704e-15 355.879 0.00404491 354.573 0.00808982 353.266 2.92042 352.21 6.50826 352.223 10.0961 352.231 13.0003 353.294 12.9963 354.605L13.0003 354.605Z" fill="#E6E6E6" fill-rule="evenodd" transform="matrix(1.0431 0 0 1 206.34 -197.125)"/><path d="M9.96261 355.463C9.96261 356.292 7.72982 356.963 4.97928 356.955 2.22874 356.947 -7.18521e-16 356.268 0.00404491 355.438 0.00404491 354.605 2.23683 353.938 4.98737 353.946 7.73791 353.95 9.96666 354.629 9.96261 355.463Z" fill="#50E6FF" fill-rule="evenodd" transform="matrix(1.0431 0 0 1 207.923 -198.178)"/><path d="M3.94783 355.806C2.60995 355.771 1.27554 355.959 9.25807e-08 356.365 1.27005 356.791 2.60445 356.994 3.94379 356.963 5.28281 357.003 6.61852 356.81 7.89162 356.393 6.61901 355.978 5.28597 355.78 3.94783 355.806Z" fill="#198AB3" fill-rule="evenodd" transform="matrix(1.0431 0 0 1 209.003 -198.186)"/><path d="M6.77927 351.968 4.62333 355.798 2.34605 353.477 7.18521e-16 356.522 0.550108 356.951 2.41077 354.552 4.77704 356.963 7.386 352.316 6.77927 351.968Z" fill="#B796F9" fill-rule="evenodd" transform="matrix(1.0431 0 0 1 209.262 -190.316)"/><path d="M1.77005 356.073C1.77005 356.565 1.37381 356.963 0.885026 356.963 0.39624 356.963-1.46586e-08 356.565-1.46586e-08 356.073-1.46586e-08 355.581 0.39624 355.183 0.885026 355.183 1.37381 355.183 1.77005 355.581 1.77005 356.073Z" fill="url(#fill37)" fill-rule="evenodd" transform="matrix(1.0431 0 0 1 210.816 -192.377)"/><path d="M1.77005 356.073C1.77005 356.565 1.37381 356.963 0.885026 356.963 0.39624 356.963-1.46586e-08 356.565-1.46586e-08 356.073-1.46586e-08 355.581 0.39624 355.183 0.885026 355.183 1.37381 355.183 1.77005 355.581 1.77005 356.073Z" fill="url(#fill38)" fill-rule="evenodd" transform="matrix(1.0431 0 0 1 213.32 -190.17)"/><path d="M1.77005 356.073C1.77005 356.565 1.37381 356.963 0.885026 356.963 0.39624 356.963-1.46586e-08 356.565-1.46586e-08 356.073-1.46586e-08 355.581 0.39624 355.183 0.885026 355.183 1.37381 355.183 1.77005 355.581 1.77005 356.073Z" fill="url(#fill39)" fill-rule="evenodd" transform="matrix(1.0431 0 0 1 215.645 -194.136)"/><path d="M1.77005 356.073C1.77005 356.565 1.37381 356.963 0.885026 356.963 0.39624 356.963-1.46586e-08 356.565-1.46586e-08 356.073-1.46586e-08 355.581 0.39624 355.183 0.885026 355.183 1.37381 355.183 1.77005 355.581 1.77005 356.073Z" fill="url(#fill40)" fill-rule="evenodd" transform="matrix(1.0431 0 0 1 208.722 -189.782)"/><path d="M0 356.814C-5.29907e-15 356.897 0.0677304 356.965 0.15128 356.965L1.24179 356.963C1.32533 356.963 1.39307 356.896 1.39307 356.812L1.39145 353.023C1.39145 352.94 1.32372 352.872 1.24017 352.872L0.149662 352.874C0.0661124 352.874-0.00161796 352.941-0.00161796 353.025L0 356.814Z" fill="#5EA0EF" fill-rule="evenodd" transform="matrix(1.0431 0 0 1 211.232 -186.744)"/><path d="M0 356.814C-5.29907e-15 356.897 0.0677304 356.965 0.15128 356.965L1.24179 356.963C1.32533 356.963 1.39307 356.896 1.39307 356.812L1.39145 354.439C1.39145 354.355 1.32372 354.288 1.24017 354.288L0.149662 354.285C0.0661124 354.285-0.00161796 354.353-0.00161796 354.437L0 356.814Z" fill="#5EA0EF" fill-rule="evenodd" transform="matrix(1.0431 0 0 1 213.545 -186.744)"/><path d="M0 356.814C-5.29907e-15 356.897 0.0677304 356.965 0.15128 356.965L1.24179 356.963C1.32533 356.963 1.39307 356.896 1.39307 356.812L1.39145 351.652C1.39145 351.569 1.32372 351.501 1.24017 351.501L0.149662 351.503C0.0661124 351.503-0.00161796 351.57-0.00161796 351.654L0 356.814Z" fill="#5EA0EF" fill-rule="evenodd" transform="matrix(1.0431 0 0 1 215.858 -186.744)"/><path d="M0 356.814C-5.29907e-15 356.897 0.0677304 356.965 0.15128 356.965L1.24179 356.963C1.32533 356.963 1.39307 356.896 1.39307 356.812L1.39145 354.439C1.39145 354.355 1.32372 354.288 1.24017 354.288L0.149662 354.285C0.0661124 354.285-0.00161796 354.353-0.00161796 354.437L0 356.814Z" fill="#5EA0EF" fill-rule="evenodd" transform="matrix(1.0431 0 0 1 208.919 -186.744)"/><text font-family="Segoe UI Semibold,Segoe UI Semibold_MSFontService,sans-serif" font-weight="600" font-size="18" transform="matrix(0.421926 0 0 0.404491 427.341 192)">Log <tspan font-size="18" x="-21.44" y="22.2502">Analytics</tspan></text><path d="M5.84085 351.956 10.8484 351.956 10.8484 356.963 5.84085 356.963 5.84085 351.956ZM0.695724 356.963 5.0076 356.963 5.0076 351.956 0 351.956 0 356.268C-6.19725e-15 356.652 0.311486 356.963 0.695724 356.963ZM0 351.167 5.0076 351.167 5.0076 346.115 0 346.115 0 351.167Z" fill="url(#fill41)" fill-rule="evenodd" transform="matrix(1.0431 0 0 1 428.542 -174.272)"/><path d="M6.89657 343.113C10.6663 343.074 13.7544 346.098 13.794 349.868 13.7946 349.934 13.7944 350 13.7931 350.067 13.8322 353.837 10.8079 356.924 7.03806 356.963 6.9909 356.964 6.94373 356.964 6.89657 356.963L0 356.963 0 350.01C-0.0390731 346.24 2.98528 343.153 6.75508 343.113 6.80224 343.113 6.84941 343.113 6.89657 343.113Z" fill="url(#fill42)" fill-rule="evenodd" transform="matrix(1.0431 0 0 1 434.586 -180.009)"/><path d="M0 352.235 1.5763 352.235 1.5763 356.963 0 356.963Z" fill="#FFFFFF" fill-rule="evenodd" transform="matrix(1.0431 0 0 1 437.052 -183.219)"/><path d="M0 353.811 1.5763 353.811 1.5763 356.963 0 356.963Z" fill="#FFFFFF" fill-rule="evenodd" transform="matrix(1.0431 0 0 1 440.341 -183.219)"/><path d="M0 350.659 1.5763 350.659 1.5763 356.963 0 356.963Z" fill="#FFFFFF" fill-rule="evenodd" transform="matrix(1.0431 0 0 1 443.629 -183.219)"/><path d="M0 354.997C0.00111478 356.083 0.880593 356.962 1.96583 356.963L31.9871 356.963C33.074 356.964 33.9559 356.084 33.957 354.997L33.957 326.133C33.9559 325.046 33.074 324.166 31.9871 324.167L1.96583 324.167C0.880593 324.168 0.00111483 325.048 5.40052e-08 326.133L0 354.997Z" stroke="#D8D8D8" stroke-width="0.910105" stroke-linecap="round" stroke-linejoin="round" stroke-miterlimit="3" fill="#E6E6E6" fill-rule="evenodd" transform="matrix(1.0431 0 0 1 237.645 -179.511)"/><text font-family="Segoe UI Semibold,Segoe UI Semibold_MSFontService,sans-serif" font-weight="600" font-size="18" transform="matrix(0.421926 0 0 0.404491 247.307 153)">Logs</text><path d="M6.52444 344.359C2.93256 344.351 0.0283144 343.283 0.0323593 341.977L0 354.569C0 355.867 2.85571 356.927 6.40309 356.955L6.49208 356.955C10.0799 356.963 12.9922 355.912 12.9963 354.605L13.0287 342.009C13.0246 343.32 10.1123 344.371 6.52444 344.359Z" fill="url(#fill43)" fill-rule="evenodd" transform="matrix(1.0431 0 0 1 249.015 -184.042)"/><path d="M13.0003 354.605C13.0003 355.912 10.084 356.963 6.49612 356.955 2.90829 356.947 1.43704e-15 355.879 0.00404491 354.573 0.00808982 353.266 2.92042 352.21 6.50826 352.223 10.0961 352.231 13.0003 353.294 12.9963 354.605L13.0003 354.605Z" fill="#E6E6E6" fill-rule="evenodd" transform="matrix(1.0431 0 0 1 249.045 -196.636)"/><path d="M9.96261 355.463C9.96261 356.292 7.72982 356.963 4.97928 356.955 2.22874 356.947 -7.18521e-16 356.268 0.00404491 355.438 0.00404491 354.605 2.23683 353.938 4.98737 353.946 7.73791 353.95 9.96666 354.629 9.96261 355.463Z" fill="#50E6FF" fill-rule="evenodd" transform="matrix(1.0431 0 0 1 250.629 -197.689)"/><path d="M3.94783 355.806C2.60995 355.771 1.27554 355.959 9.25807e-08 356.365 1.27005 356.791 2.60445 356.994 3.94379 356.963 5.28281 357.003 6.61852 356.81 7.89162 356.393 6.61901 355.978 5.28597 355.78 3.94783 355.806Z" fill="#198AB3" fill-rule="evenodd" transform="matrix(1.0431 0 0 1 251.708 -197.697)"/><path d="M3.27233 354.156 6.0795 354.156 6.0795 356.963 3.27233 356.963 3.27233 354.156ZM0.388311 356.963 2.80717 356.963 2.80717 354.156 0 354.156 0 356.575C-1.23945e-14 356.79 0.174577 356.965 0.389929 356.965ZM0 353.715 2.80717 353.715 2.80717 350.884 0 350.884 0 353.715Z" fill="url(#fill44)" fill-rule="evenodd" transform="matrix(1.0431 0 0 1 250.28 -185.366)"/><path d="M3.86289 349.201C5.97587 349.178 7.70733 350.872 7.73031 352.985 7.73071 353.023 7.73055 353.062 7.72982 353.1 7.75029 355.213 6.05393 356.943 3.94095 356.963 3.91493 356.964 3.88891 356.964 3.86289 356.963L0 356.963 0 353.064C-0.0204276 350.951 1.67593 349.221 3.78891 349.201 3.81357 349.201 3.83823 349.201 3.86289 349.201Z" fill="url(#fill45)" fill-rule="evenodd" transform="matrix(1.0431 0 0 1 253.668 -188.581)"/><path d="M0 354.313 0.883408 354.313 0.883408 356.963 0 356.963Z" fill="#FFFFFF" fill-rule="evenodd" transform="matrix(1.0431 0 0 1 255.05 -190.38)"/><path d="M0 355.196 0.883408 355.196 0.883408 356.963 0 356.963Z" fill="#FFFFFF" fill-rule="evenodd" transform="matrix(1.0431 0 0 1 256.893 -190.38)"/><path d="M0 353.43 0.883408 353.43 0.883408 356.963 0 356.963Z" fill="#FFFFFF" fill-rule="evenodd" transform="matrix(1.0431 0 0 1 258.736 -190.38)"/><path d="M0 354.997C0.00111478 356.083 0.880593 356.962 1.96583 356.963L31.9871 356.963C33.074 356.964 33.9559 356.084 33.957 354.997L33.957 326.133C33.9559 325.046 33.074 324.166 31.9871 324.167L1.96583 324.167C0.880593 324.168 0.00111483 325.048 5.40052e-08 326.133L0 354.997Z" stroke="#D8D8D8" stroke-width="0.910105" stroke-linecap="round" stroke-linejoin="round" stroke-miterlimit="3" fill="#E6E6E6" fill-rule="evenodd" transform="matrix(1.0431 0 0 1 237.645 -140.306)"/><text font-family="Segoe UI Semibold,Segoe UI Semibold_MSFontService,sans-serif" font-weight="600" font-size="18" transform="matrix(0.421926 0 0 0.404491 244.433 192)">Traces</text><path d="M6.52444 344.359C2.93256 344.351 0.0283144 343.283 0.0323593 341.977L0 354.569C0 355.867 2.85571 356.927 6.40309 356.955L6.49208 356.955C10.0799 356.963 12.9922 355.912 12.9963 354.605L13.0287 342.009C13.0246 343.32 10.1123 344.371 6.52444 344.359Z" fill="url(#fill46)" fill-rule="evenodd" transform="matrix(1.0431 0 0 1 249.015 -144.837)"/><path d="M13.0003 354.605C13.0003 355.912 10.084 356.963 6.49612 356.955 2.90829 356.947 1.43704e-15 355.879 0.00404491 354.573 0.00808982 353.266 2.92042 352.21 6.50826 352.223 10.0961 352.231 13.0003 353.294 12.9963 354.605L13.0003 354.605Z" fill="#E6E6E6" fill-rule="evenodd" transform="matrix(1.0431 0 0 1 249.045 -157.431)"/><path d="M9.96261 355.463C9.96261 356.292 7.72982 356.963 4.97928 356.955 2.22874 356.947 -7.18521e-16 356.268 0.00404491 355.438 0.00404491 354.605 2.23683 353.938 4.98737 353.946 7.73791 353.95 9.96666 354.629 9.96261 355.463Z" fill="#50E6FF" fill-rule="evenodd" transform="matrix(1.0431 0 0 1 250.629 -158.484)"/><path d="M3.94783 355.806C2.60995 355.771 1.27554 355.959 9.25807e-08 356.365 1.27005 356.791 2.60445 356.994 3.94379 356.963 5.28281 357.003 6.61852 356.81 7.89162 356.393 6.61901 355.978 5.28597 355.78 3.94783 355.806Z" fill="#198AB3" fill-rule="evenodd" transform="matrix(1.0431 0 0 1 251.708 -158.492)"/><path d="M3.27233 354.156 6.0795 354.156 6.0795 356.963 3.27233 356.963 3.27233 354.156ZM0.388311 356.963 2.80717 356.963 2.80717 354.156 0 354.156 0 356.575C-1.23945e-14 356.79 0.174577 356.965 0.389929 356.965ZM0 353.715 2.80717 353.715 2.80717 350.884 0 350.884 0 353.715Z" fill="url(#fill47)" fill-rule="evenodd" transform="matrix(1.0431 0 0 1 250.28 -146.161)"/><path d="M3.86289 349.201C5.97587 349.178 7.70733 350.872 7.73031 352.985 7.73071 353.023 7.73055 353.062 7.72982 353.1 7.75029 355.213 6.05393 356.943 3.94095 356.963 3.91493 356.964 3.88891 356.964 3.86289 356.963L0 356.963 0 353.064C-0.0204276 350.951 1.67593 349.221 3.78891 349.201 3.81357 349.201 3.83823 349.201 3.86289 349.201Z" fill="url(#fill48)" fill-rule="evenodd" transform="matrix(1.0431 0 0 1 253.668 -149.376)"/><path d="M0 354.313 0.883408 354.313 0.883408 356.963 0 356.963Z" fill="#FFFFFF" fill-rule="evenodd" transform="matrix(1.0431 0 0 1 255.05 -151.175)"/><path d="M0 355.196 0.883408 355.196 0.883408 356.963 0 356.963Z" fill="#FFFFFF" fill-rule="evenodd" transform="matrix(1.0431 0 0 1 256.893 -151.175)"/><path d="M0 353.43 0.883408 353.43 0.883408 356.963 0 356.963Z" fill="#FFFFFF" fill-rule="evenodd" transform="matrix(1.0431 0 0 1 258.736 -151.175)"/><path d="M0 354.997C0.00111478 356.083 0.880593 356.962 1.96583 356.963L31.9871 356.963C33.074 356.964 33.9559 356.084 33.957 354.997L33.957 326.133C33.9559 325.046 33.074 324.166 31.9871 324.167L1.96583 324.167C0.880593 324.168 0.00111483 325.048 5.40052e-08 326.133L0 354.997Z" stroke="#D8D8D8" stroke-width="0.910105" stroke-linecap="round" stroke-linejoin="round" stroke-miterlimit="3" fill="#E6E6E6" fill-rule="evenodd" transform="matrix(1.0431 0 0 1 195.511 -140.306)"/><text font-family="Segoe UI Semibold,Segoe UI Semibold_MSFontService,sans-serif" font-weight="600" font-size="18" transform="matrix(0.421926 0 0 0.404491 198.511 192)">Changes</text><path d="M6.52444 344.359C2.93256 344.351 0.0283144 343.283 0.0323593 341.977L0 354.569C0 355.867 2.85571 356.927 6.40309 356.955L6.49208 356.955C10.0799 356.963 12.9922 355.912 12.9963 354.605L13.0287 342.009C13.0246 343.32 10.1123 344.371 6.52444 344.359Z" fill="url(#fill49)" fill-rule="evenodd" transform="matrix(1.0431 0 0 1 206.767 -144.605)"/><path d="M13.0003 354.605C13.0003 355.912 10.084 356.963 6.49612 356.955 2.90829 356.947 1.43704e-15 355.879 0.00404491 354.573 0.00808982 353.266 2.92042 352.21 6.50826 352.223 10.0961 352.231 13.0003 353.294 12.9963 354.605L13.0003 354.605Z" fill="#E6E6E6" fill-rule="evenodd" transform="matrix(1.0431 0 0 1 206.798 -157.2)"/><path d="M9.96261 355.463C9.96261 356.292 7.72982 356.963 4.97928 356.955 2.22874 356.947 -7.18521e-16 356.268 0.00404491 355.438 0.00404491 354.605 2.23683 353.938 4.98737 353.946 7.73791 353.95 9.96666 354.629 9.96261 355.463Z" fill="#50E6FF" fill-rule="evenodd" transform="matrix(1.0431 0 0 1 208.381 -158.252)"/><path d="M3.94783 355.806C2.60995 355.771 1.27554 355.959 9.25807e-08 356.365 1.27005 356.791 2.60445 356.994 3.94379 356.963 5.28281 357.003 6.61852 356.81 7.89162 356.393 6.61901 355.978 5.28597 355.78 3.94783 355.806Z" fill="#198AB3" fill-rule="evenodd" transform="matrix(1.0431 0 0 1 209.46 -158.261)"/><path d="M5.05614 354.86 2.97705 356.963 0.88179 354.86C-0.269794 353.741-0.295894 351.899 0.823491 350.748 0.824049 350.747 0.824603 350.747 0.825161 350.746L0.88179 350.69C2.01115 349.538 3.85995 349.52 5.01164 350.649L5.05614 350.69C6.20772 351.82 6.22503 353.669 5.09477 354.821 5.09404 354.822 5.09327 354.823 5.09254 354.823L5.05614 354.86Z" fill="#00B0F0" fill-rule="evenodd" transform="matrix(1.0431 0 0 1 211.742 -149.412)"/><path d="M4.77704 354.973 2.81121 356.963 0.833251 354.973C-0.253779 353.916-0.279122 352.179 0.776623 351.09L0.833251 351.037C1.89966 349.949 3.647 349.93 4.73602 350.997 4.73622 350.997 4.73639 350.997 4.73659 350.997L4.77704 351.037C5.86358 352.107 5.87806 353.854 4.8094 354.941L4.77704 354.973Z" fill="#0078D4" fill-rule="evenodd" transform="matrix(1.0431 0 0 1 211.912 -149.609)"/><path d="M0.655275 356.963 0 356.385 3.19952 352.801 5.92175 355.604 8.49026 352.882 9.12531 353.481 5.92579 356.87 3.22784 354.079 0.655275 356.963Z" fill="#76BC2D" fill-rule="evenodd" transform="matrix(1.0431 0 0 1 208.773 -146.604)"/><path d="M2.09931 355.914C2.09931 356.493 1.62936 356.963 1.04965 356.963 0.469946 356.963 1.15726e-08 356.493 1.15726e-08 355.914 1.15726e-08 355.334 0.469946 354.864 1.04965 354.864 1.62936 354.864 2.09931 355.334 2.09931 355.914Z" fill="url(#fill50)" fill-rule="evenodd" transform="matrix(1.0431 0 0 1 211.029 -149.069)"/><path d="M2.09931 355.914C2.09931 356.493 1.62936 356.963 1.04965 356.963 0.469946 356.963 1.15726e-08 356.493 1.15726e-08 355.914 1.15726e-08 355.334 0.469946 354.864 1.04965 354.864 1.62936 354.864 2.09931 355.334 2.09931 355.914Z" fill="url(#fill51)" fill-rule="evenodd" transform="matrix(1.0431 0 0 1 213.856 -146.365)"/><path d="M2.09931 355.914C2.09931 356.493 1.62936 356.963 1.04965 356.963 0.469946 356.963 1.15726e-08 356.493 1.15726e-08 355.914 1.15726e-08 355.334 0.469946 354.864 1.04965 354.864 1.62936 354.864 2.09931 355.334 2.09931 355.914Z" fill="url(#fill52)" fill-rule="evenodd" transform="matrix(1.0431 0 0 1 216.868 -149.427)"/><path d="M2.09931 355.914C2.09931 356.493 1.62936 356.963 1.04965 356.963 0.469946 356.963 1.15726e-08 356.493 1.15726e-08 355.914 1.15726e-08 355.334 0.469946 354.864 1.04965 354.864 1.62936 354.864 2.09931 355.334 2.09931 355.914Z" fill="url(#fill53)" fill-rule="evenodd" transform="matrix(1.0431 0 0 1 208.111 -146.017)"/><path d="M0.562242 354.718C0.431766 355.185 0.497516 355.685 0.744263 356.102 0.830792 356.248 0.93848 356.38 1.06381 356.494 1.18476 356.608 1.32088 356.705 1.4683 356.781 1.61883 356.854 1.77777 356.909 1.94156 356.943 2.10911 356.969 2.27961 356.969 2.44717 356.943L2.40268 356.462C2.39646 356.412 2.35554 356.374 2.3056 356.371 2.22094 356.381 2.13551 356.381 2.05077 356.373 1.94167 356.349 1.83577 356.312 1.73527 356.263 1.63349 356.212 1.53952 356.147 1.45617 356.069 1.36977 355.991 1.29608 355.899 1.23774 355.798 1.1554 355.666 1.10295 355.516 1.08404 355.361 1.05537 355.208 1.05537 355.05 1.08404 354.896L1.24988 355.175C1.28851 355.209 1.34634 355.209 1.38498 355.175L1.60987 355.115C1.65391 355.085 1.66794 355.026 1.64223 354.98L1.08808 354.075C1.0693 354.025 1.01567 353.999 0.964711 354.013L0.0242695 354.569C-0.00967939 354.607-0.00967939 354.665 0.0242695 354.704L0.141572 354.904C0.16958 354.95 0.228526 354.967 0.276672 354.943L0.562242 354.718ZM2.51189 354.031C2.62209 354.051 2.72853 354.087 2.82739 354.14 3.03333 354.24 3.20501 354.399 3.32087 354.597 3.40168 354.732 3.45398 354.882 3.47458 355.038 3.50352 355.193 3.50352 355.352 3.47458 355.507L3.31683 355.232C3.28977 355.185 3.23089 355.167 3.18213 355.191L2.9811 355.313C2.93365 355.337 2.91485 355.395 2.93903 355.443L2.94065 355.45 3.49885 356.385C3.52358 356.431 3.5811 356.45 3.62828 356.426L3.63637 356.425 4.5667 355.863C4.60359 355.825 4.60359 355.766 4.5667 355.728L4.4494 355.531C4.41057 355.498 4.35313 355.498 4.3143 355.531L3.99637 355.721C4.06089 355.491 4.07743 355.25 4.04491 355.014 4.01857 354.773 3.93987 354.541 3.81435 354.334 3.72975 354.186 3.62341 354.051 3.49885 353.934 3.37366 353.822 3.23505 353.727 3.08627 353.65 2.9384 353.575 2.78032 353.522 2.61706 353.493 2.48662 353.456 2.35219 353.434 2.21661 353.428 2.16214 353.434 2.12236 353.483 2.12641 353.537L2.12762 353.917C2.13399 353.967 2.17482 354.005 2.2247 354.008 2.32103 354.003 2.41757 354.01 2.51189 354.031Z" fill="#FFFFFF" fill-rule="evenodd" transform="matrix(1.0431 0 0 1 212.521 -151.963)"/><text font-family="Segoe UI Semibold,Segoe UI Semibold_MSFontService,sans-serif" font-weight="600" font-size="24" transform="matrix(0.421926 0 0 0.404491 43.6896 251)">Data Sources</text><path d="M555.164 0.202245C558.18 0.202245 560.624 2.64705 560.624 5.66287L560.624 351.503C560.624 354.518 558.18 356.963 555.164 356.963L5.46063 356.963C2.44481 356.963 0 354.518 0 351.503L0 5.66287C-1.43704e-15 2.64705 2.44481 0.202245 5.46063 0.202245Z" stroke="#F2F2F2" stroke-width="0.202245" stroke-linecap="round" stroke-linejoin="round" stroke-miterlimit="3" fill="none" fill-rule="evenodd" transform="matrix(1.0431 0 0 1 0.105481 -0.0827467)"/></g></svg>